<?xml version="1.0" encoding="UTF-8" standalone="no"?>
<!DOCTYPE svg PUBLIC "-//W3C//DTD SVG 1.1//EN"
 "http://www.w3.org/Graphics/SVG/1.1/DTD/svg11.dtd">
<!-- Generated by graphviz version 2.43.0 (0)
 -->
<!-- Title: G Pages: 1 -->
<svg width="685pt" height="1183pt"
 viewBox="0.00 0.00 684.99 1183.00" xmlns="http://www.w3.org/2000/svg" xmlns:xlink="http://www.w3.org/1999/xlink">
<g id="graph0" class="graph" transform="scale(1 1) rotate(0) translate(4 1179)">
<title>G</title>
<polygon fill="white" stroke="transparent" points="-4,4 -4,-1179 680.99,-1179 680.99,4 -4,4"/>
<g id="clust1" class="cluster">
<title>cluster_10.0.0.101</title>
<path fill="none" stroke="black" d="M141,-768C141,-768 656.99,-768 656.99,-768 662.99,-768 668.99,-774 668.99,-780 668.99,-780 668.99,-1155 668.99,-1155 668.99,-1161 662.99,-1167 656.99,-1167 656.99,-1167 141,-1167 141,-1167 135,-1167 129,-1161 129,-1155 129,-1155 129,-780 129,-780 129,-774 135,-768 141,-768"/>
<text text-anchor="middle" x="399" y="-1151.8" font-family="Times,serif" font-size="14.00">Host 1</text>
</g>
<g id="clust2" class="cluster">
<title>cluster_10.0.0.102</title>
<path fill="none" stroke="black" d="M141,-415C141,-415 656.99,-415 656.99,-415 662.99,-415 668.99,-421 668.99,-427 668.99,-427 668.99,-748 668.99,-748 668.99,-754 662.99,-760 656.99,-760 656.99,-760 141,-760 141,-760 135,-760 129,-754 129,-748 129,-748 129,-427 129,-427 129,-421 135,-415 141,-415"/>
<text text-anchor="middle" x="399" y="-744.8" font-family="Times,serif" font-size="14.00">Host 2</text>
</g>
<g id="clust3" class="cluster">
<title>cluster_10.0.0.103</title>
<path fill="none" stroke="black" d="M141,-8C141,-8 656.99,-8 656.99,-8 662.99,-8 668.99,-14 668.99,-20 668.99,-20 668.99,-395 668.99,-395 668.99,-401 662.99,-407 656.99,-407 656.99,-407 141,-407 141,-407 135,-407 129,-401 129,-395 129,-395 129,-20 129,-20 129,-14 135,-8 141,-8"/>
<text text-anchor="middle" x="399" y="-391.8" font-family="Times,serif" font-size="14.00">Host 3</text>
</g>
<!-- cloud -->
<g id="node1" class="node">
<title>cloud</title>
<polygon fill="none" stroke="black" points="101,-648 0,-648 0,-612 101,-612 101,-648"/>
<text text-anchor="middle" x="50.5" y="-626.3" font-family="Times,serif" font-size="14.00">infra switch</text>
</g>
<!-- eth0_10.0.0.101 -->
<g id="node2" class="node">
<title>eth0_10.0.0.101</title>
<polygon fill="none" stroke="black" points="230,-821 137,-821 137,-783 230,-783 230,-821"/>
<text text-anchor="middle" x="183.5" y="-805.8" font-family="Times,serif" font-size="14.00">eth0</text>
<text text-anchor="middle" x="183.5" y="-790.8" font-family="Times,serif" font-size="14.00">10.0.0.101</text>
</g>
<!-- cloud&#45;&#45;eth0_10.0.0.101 -->
<g id="edge1" class="edge">
<title>cloud&#45;&#45;eth0_10.0.0.101</title>
<path fill="none" stroke="black" d="M50.99,-648.08C50.99,-692.24 50.99,-802 50.99,-802 50.99,-802 98.63,-802 136.78,-802"/>
</g>
<!-- eth0_10.0.0.102 -->
<g id="node18" class="node">
<title>eth0_10.0.0.102</title>
<polygon fill="none" stroke="black" points="230,-649 137,-649 137,-611 230,-611 230,-649"/>
<text text-anchor="middle" x="183.5" y="-633.8" font-family="Times,serif" font-size="14.00">eth0</text>
<text text-anchor="middle" x="183.5" y="-618.8" font-family="Times,serif" font-size="14.00">10.0.0.102</text>
</g>
<!-- cloud&#45;&#45;eth0_10.0.0.102 -->
<g id="edge20" class="edge">
<title>cloud&#45;&#45;eth0_10.0.0.102</title>
<path fill="none" stroke="black" d="M101.16,-630C112.91,-630 125.35,-630 136.91,-630"/>
</g>
<!-- eth0_10.0.0.103 -->
<g id="node31" class="node">
<title>eth0_10.0.0.103</title>
<polygon fill="none" stroke="black" points="230,-376 137,-376 137,-338 230,-338 230,-376"/>
<text text-anchor="middle" x="183.5" y="-360.8" font-family="Times,serif" font-size="14.00">eth0</text>
<text text-anchor="middle" x="183.5" y="-345.8" font-family="Times,serif" font-size="14.00">10.0.0.103</text>
</g>
<!-- cloud&#45;&#45;eth0_10.0.0.103 -->
<g id="edge35" class="edge">
<title>cloud&#45;&#45;eth0_10.0.0.103</title>
<path fill="none" stroke="black" d="M50.99,-611.66C50.99,-550.45 50.99,-357 50.99,-357 50.99,-357 98.63,-357 136.78,-357"/>
</g>
<!-- 10.0.0.101:10.0.0.101:22001 -->
<g id="node3" class="node">
<title>10.0.0.101:10.0.0.101:22001</title>
<polygon fill="none" stroke="#8b0a50" points="364,-827 266,-827 266,-791 364,-791 364,-827"/>
<text text-anchor="middle" x="315" y="-805.3" font-family="Times,serif" font-size="14.00">vtep 22001</text>
</g>
<!-- eth0_10.0.0.101&#45;&#45;10.0.0.101:10.0.0.101:22001 -->
<g id="edge2" class="edge">
<title>eth0_10.0.0.101&#45;&#45;10.0.0.101:10.0.0.101:22001</title>
<path fill="none" stroke="#8b0a50" d="M230.23,-806C241.75,-806 254.12,-806 265.75,-806"/>
</g>
<!-- 10.0.0.101:10.0.0.101:22002 -->
<g id="node5" class="node">
<title>10.0.0.101:10.0.0.101:22002</title>
<polygon fill="none" stroke="indigo" points="364,-921 266,-921 266,-885 364,-885 364,-921"/>
<text text-anchor="middle" x="315" y="-899.3" font-family="Times,serif" font-size="14.00">vtep 22002</text>
</g>
<!-- eth0_10.0.0.101&#45;&#45;10.0.0.101:10.0.0.101:22002 -->
<g id="edge5" class="edge">
<title>eth0_10.0.0.101&#45;&#45;10.0.0.101:10.0.0.101:22002</title>
<path fill="none" stroke="indigo" d="M206.99,-821.47C206.99,-850.82 206.99,-903 206.99,-903 206.99,-903 237.25,-903 265.74,-903"/>
</g>
<!-- 10.0.0.101:10.0.0.101:22003 -->
<g id="node7" class="node">
<title>10.0.0.101:10.0.0.101:22003</title>
<polygon fill="none" stroke="darkgreen" points="364,-995 266,-995 266,-959 364,-959 364,-995"/>
<text text-anchor="middle" x="315" y="-973.3" font-family="Times,serif" font-size="14.00">vtep 22003</text>
</g>
<!-- eth0_10.0.0.101&#45;&#45;10.0.0.101:10.0.0.101:22003 -->
<g id="edge8" class="edge">
<title>eth0_10.0.0.101&#45;&#45;10.0.0.101:10.0.0.101:22003</title>
<path fill="none" stroke="darkgreen" d="M183.99,-821.06C183.99,-866.42 183.99,-977 183.99,-977 183.99,-977 228.67,-977 265.85,-977"/>
</g>
<!-- 10.0.0.101:10.0.0.101:22004 -->
<g id="node9" class="node">
<title>10.0.0.101:10.0.0.101:22004</title>
<polygon fill="none" stroke="crimson" points="364,-1059 266,-1059 266,-1023 364,-1023 364,-1059"/>
<text text-anchor="middle" x="315" y="-1037.3" font-family="Times,serif" font-size="14.00">vtep 22004</text>
</g>
<!-- eth0_10.0.0.101&#45;&#45;10.0.0.101:10.0.0.101:22004 -->
<g id="edge11" class="edge">
<title>eth0_10.0.0.101&#45;&#45;10.0.0.101:10.0.0.101:22004</title>
<path fill="none" stroke="crimson" d="M160.99,-821.15C160.99,-877.87 160.99,-1041 160.99,-1041 160.99,-1041 220.78,-1041 265.85,-1041"/>
</g>
<!-- 10.0.0.101:22001 -->
<g id="node4" class="node">
<title>10.0.0.101:22001</title>
<ellipse fill="none" stroke="#8b0a50" cx="439" cy="-822" rx="38.99" ry="18"/>
<text text-anchor="middle" x="439" y="-818.3" font-family="Times,serif" font-size="14.00">vlan 2</text>
</g>
<!-- 10.0.0.101:10.0.0.101:22001&#45;&#45;10.0.0.101:22001 -->
<g id="edge3" class="edge">
<title>10.0.0.101:10.0.0.101:22001&#45;&#45;10.0.0.101:22001</title>
<path fill="none" stroke="#8b0a50" d="M364.01,-815.5C376.87,-815.5 390.51,-815.5 402.58,-815.5"/>
</g>
<!-- 10.0.0.101:02:20:20:01:01:01 -->
<g id="node11" class="node">
<title>10.0.0.101:02:20:20:01:01:01</title>
<polygon fill="none" stroke="#8b0a50" points="660.99,-812 513.99,-812 513.99,-776 660.99,-776 660.99,-812"/>
<text text-anchor="middle" x="587.49" y="-790.3" font-family="Times,serif" font-size="14.00">02:20:20:01:01:01</text>
</g>
<!-- 10.0.0.101:22001&#45;&#45;10.0.0.101:02:20:20:01:01:01 -->
<g id="edge13" class="edge">
<title>10.0.0.101:22001&#45;&#45;10.0.0.101:02:20:20:01:01:01</title>
<path fill="none" stroke="#8b0a50" d="M463.52,-808C477.44,-808 495.68,-808 513.87,-808"/>
</g>
<!-- 10.0.0.101:02:20:20:01:02:01 -->
<g id="node12" class="node">
<title>10.0.0.101:02:20:20:01:02:01</title>
<polygon fill="none" stroke="#8b0a50" points="660.99,-866 513.99,-866 513.99,-830 660.99,-830 660.99,-866"/>
<text text-anchor="middle" x="587.49" y="-844.3" font-family="Times,serif" font-size="14.00">02:20:20:01:02:01</text>
</g>
<!-- 10.0.0.101:22001&#45;&#45;10.0.0.101:02:20:20:01:02:01 -->
<g id="edge14" class="edge">
<title>10.0.0.101:22001&#45;&#45;10.0.0.101:02:20:20:01:02:01</title>
<path fill="none" stroke="#8b0a50" d="M466.23,-835C479.8,-835 496.92,-835 513.99,-835"/>
</g>
<!-- 10.0.0.101:02:20:20:01:03:01 -->
<g id="node13" class="node">
<title>10.0.0.101:02:20:20:01:03:01</title>
<polygon fill="none" stroke="#8b0a50" points="660.99,-920 513.99,-920 513.99,-884 660.99,-884 660.99,-920"/>
<text text-anchor="middle" x="587.49" y="-898.3" font-family="Times,serif" font-size="14.00">02:20:20:01:03:01</text>
</g>
<!-- 10.0.0.101:22001&#45;&#45;10.0.0.101:02:20:20:01:03:01 -->
<g id="edge15" class="edge">
<title>10.0.0.101:22001&#45;&#45;10.0.0.101:02:20:20:01:03:01</title>
<path fill="none" stroke="#8b0a50" d="M452.99,-838.94C452.99,-860.97 452.99,-896.67 452.99,-896.67 452.99,-896.67 482.55,-896.67 513.95,-896.67"/>
</g>
<!-- 10.0.0.101:22002 -->
<g id="node6" class="node">
<title>10.0.0.101:22002</title>
<ellipse fill="none" stroke="indigo" cx="439" cy="-956" rx="38.99" ry="18"/>
<text text-anchor="middle" x="439" y="-952.3" font-family="Times,serif" font-size="14.00">vlan 4</text>
</g>
<!-- 10.0.0.101:10.0.0.101:22002&#45;&#45;10.0.0.101:22002 -->
<g id="edge6" class="edge">
<title>10.0.0.101:10.0.0.101:22002&#45;&#45;10.0.0.101:22002</title>
<path fill="none" stroke="indigo" d="M364.12,-908.33C394.21,-908.33 426.99,-908.33 426.99,-908.33 426.99,-908.33 426.99,-925.14 426.99,-938.79"/>
</g>
<!-- 10.0.0.101:02:20:20:01:04:01 -->
<g id="node14" class="node">
<title>10.0.0.101:02:20:20:01:04:01</title>
<polygon fill="none" stroke="indigo" points="660.99,-974 513.99,-974 513.99,-938 660.99,-938 660.99,-974"/>
<text text-anchor="middle" x="587.49" y="-952.3" font-family="Times,serif" font-size="14.00">02:20:20:01:04:01</text>
</g>
<!-- 10.0.0.101:22002&#45;&#45;10.0.0.101:02:20:20:01:04:01 -->
<g id="edge16" class="edge">
<title>10.0.0.101:22002&#45;&#45;10.0.0.101:02:20:20:01:04:01</title>
<path fill="none" stroke="indigo" d="M478.01,-956C489.1,-956 501.55,-956 513.97,-956"/>
</g>
<!-- 10.0.0.101:02:20:20:01:05:01 -->
<g id="node15" class="node">
<title>10.0.0.101:02:20:20:01:05:01</title>
<polygon fill="none" stroke="indigo" points="660.99,-1028 513.99,-1028 513.99,-992 660.99,-992 660.99,-1028"/>
<text text-anchor="middle" x="587.49" y="-1006.3" font-family="Times,serif" font-size="14.00">02:20:20:01:05:01</text>
</g>
<!-- 10.0.0.101:22002&#45;&#45;10.0.0.101:02:20:20:01:05:01 -->
<g id="edge17" class="edge">
<title>10.0.0.101:22002&#45;&#45;10.0.0.101:02:20:20:01:05:01</title>
<path fill="none" stroke="indigo" d="M452.99,-972.98C452.99,-987.82 452.99,-1007 452.99,-1007 452.99,-1007 482.55,-1007 513.95,-1007"/>
</g>
<!-- 10.0.0.101:22003 -->
<g id="node8" class="node">
<title>10.0.0.101:22003</title>
<ellipse fill="none" stroke="darkgreen" cx="439" cy="-1037" rx="38.99" ry="18"/>
<text text-anchor="middle" x="439" y="-1033.3" font-family="Times,serif" font-size="14.00">vlan 5</text>
</g>
<!-- 10.0.0.101:10.0.0.101:22003&#45;&#45;10.0.0.101:22003 -->
<g id="edge9" class="edge">
<title>10.0.0.101:10.0.0.101:22003&#45;&#45;10.0.0.101:22003</title>
<path fill="none" stroke="darkgreen" d="M364.12,-983C394.21,-983 426.99,-983 426.99,-983 426.99,-983 426.99,-1003.83 426.99,-1019.62"/>
</g>
<!-- 10.0.0.101:02:20:20:01:06:01 -->
<g id="node16" class="node">
<title>10.0.0.101:02:20:20:01:06:01</title>
<polygon fill="none" stroke="darkgreen" points="660.99,-1082 513.99,-1082 513.99,-1046 660.99,-1046 660.99,-1082"/>
<text text-anchor="middle" x="587.49" y="-1060.3" font-family="Times,serif" font-size="14.00">02:20:20:01:06:01</text>
</g>
<!-- 10.0.0.101:22003&#45;&#45;10.0.0.101:02:20:20:01:06:01 -->
<g id="edge18" class="edge">
<title>10.0.0.101:22003&#45;&#45;10.0.0.101:02:20:20:01:06:01</title>
<path fill="none" stroke="darkgreen" d="M464.86,-1050.5C478.57,-1050.5 496.18,-1050.5 513.75,-1050.5"/>
</g>
<!-- 10.0.0.101:22004 -->
<g id="node10" class="node">
<title>10.0.0.101:22004</title>
<ellipse fill="none" stroke="crimson" cx="439" cy="-1104" rx="38.99" ry="18"/>
<text text-anchor="middle" x="439" y="-1100.3" font-family="Times,serif" font-size="14.00">vlan 3</text>
</g>
<!-- 10.0.0.101:10.0.0.101:22004&#45;&#45;10.0.0.101:22004 -->
<g id="edge12" class="edge">
<title>10.0.0.101:10.0.0.101:22004&#45;&#45;10.0.0.101:22004</title>
<path fill="none" stroke="crimson" d="M315.99,-1059.22C315.99,-1077.83 315.99,-1104 315.99,-1104 315.99,-1104 363.74,-1104 399.74,-1104"/>
</g>
<!-- 10.0.0.101:02:20:20:01:07:01 -->
<g id="node17" class="node">
<title>10.0.0.101:02:20:20:01:07:01</title>
<polygon fill="none" stroke="crimson" points="660.99,-1136 513.99,-1136 513.99,-1100 660.99,-1100 660.99,-1136"/>
<text text-anchor="middle" x="587.49" y="-1114.3" font-family="Times,serif" font-size="14.00">02:20:20:01:07:01</text>
</g>
<!-- 10.0.0.101:22004&#45;&#45;10.0.0.101:02:20:20:01:07:01 -->
<g id="edge19" class="edge">
<title>10.0.0.101:22004&#45;&#45;10.0.0.101:02:20:20:01:07:01</title>
<path fill="none" stroke="crimson" d="M474.94,-1111C486.7,-1111 500.23,-1111 513.73,-1111"/>
</g>
<!-- 10.0.0.102:10.0.0.102:22001 -->
<g id="node19" class="node">
<title>10.0.0.102:10.0.0.102:22001</title>
<polygon fill="none" stroke="#8b0a50" points="364,-553 266,-553 266,-517 364,-517 364,-553"/>
<text text-anchor="middle" x="315" y="-531.3" font-family="Times,serif" font-size="14.00">vtep 22001</text>
</g>
<!-- eth0_10.0.0.102&#45;&#45;10.0.0.102:10.0.0.102:22001 -->
<g id="edge21" class="edge">
<title>eth0_10.0.0.102&#45;&#45;10.0.0.102:10.0.0.102:22001</title>
<path fill="none" stroke="#8b0a50" d="M183.99,-610.78C183.99,-583.02 183.99,-535 183.99,-535 183.99,-535 228.67,-535 265.85,-535"/>
</g>
<!-- 10.0.0.102:10.0.0.102:22002 -->
<g id="node21" class="node">
<title>10.0.0.102:10.0.0.102:22002</title>
<polygon fill="none" stroke="indigo" points="364,-621 266,-621 266,-585 364,-585 364,-621"/>
<text text-anchor="middle" x="315" y="-599.3" font-family="Times,serif" font-size="14.00">vtep 22002</text>
</g>
<!-- eth0_10.0.0.102&#45;&#45;10.0.0.102:10.0.0.102:22002 -->
<g id="edge24" class="edge">
<title>eth0_10.0.0.102&#45;&#45;10.0.0.102:10.0.0.102:22002</title>
<path fill="none" stroke="indigo" d="M230.23,-616C241.75,-616 254.12,-616 265.75,-616"/>
</g>
<!-- 10.0.0.102:10.0.0.102:22003 -->
<g id="node23" class="node">
<title>10.0.0.102:10.0.0.102:22003</title>
<polygon fill="none" stroke="darkgreen" points="364,-675 266,-675 266,-639 364,-639 364,-675"/>
<text text-anchor="middle" x="315" y="-653.3" font-family="Times,serif" font-size="14.00">vtep 22003</text>
</g>
<!-- eth0_10.0.0.102&#45;&#45;10.0.0.102:10.0.0.102:22003 -->
<g id="edge27" class="edge">
<title>eth0_10.0.0.102&#45;&#45;10.0.0.102:10.0.0.102:22003</title>
<path fill="none" stroke="darkgreen" d="M230.23,-644C241.75,-644 254.12,-644 265.75,-644"/>
</g>
<!-- 10.0.0.102:22001 -->
<g id="node20" class="node">
<title>10.0.0.102:22001</title>
<ellipse fill="none" stroke="#8b0a50" cx="439" cy="-522" rx="38.99" ry="18"/>
<text text-anchor="middle" x="439" y="-518.3" font-family="Times,serif" font-size="14.00">vlan 2</text>
</g>
<!-- 10.0.0.102:10.0.0.102:22001&#45;&#45;10.0.0.102:22001 -->
<g id="edge22" class="edge">
<title>10.0.0.102:10.0.0.102:22001&#45;&#45;10.0.0.102:22001</title>
<path fill="none" stroke="#8b0a50" d="M364.01,-528.5C376.87,-528.5 390.51,-528.5 402.58,-528.5"/>
</g>
<!-- 10.0.0.102:02:20:20:02:01:01 -->
<g id="node25" class="node">
<title>10.0.0.102:02:20:20:02:01:01</title>
<polygon fill="none" stroke="#8b0a50" points="660.99,-459 513.99,-459 513.99,-423 660.99,-423 660.99,-459"/>
<text text-anchor="middle" x="587.49" y="-437.3" font-family="Times,serif" font-size="14.00">02:20:20:02:01:01</text>
</g>
<!-- 10.0.0.102:22001&#45;&#45;10.0.0.102:02:20:20:02:01:01 -->
<g id="edge29" class="edge">
<title>10.0.0.102:22001&#45;&#45;10.0.0.102:02:20:20:02:01:01</title>
<path fill="none" stroke="#8b0a50" d="M439.99,-503.62C439.99,-479.72 439.99,-441 439.99,-441 439.99,-441 476.87,-441 513.74,-441"/>
</g>
<!-- 10.0.0.102:02:20:20:02:02:01 -->
<g id="node26" class="node">
<title>10.0.0.102:02:20:20:02:02:01</title>
<polygon fill="none" stroke="#8b0a50" points="660.99,-513 513.99,-513 513.99,-477 660.99,-477 660.99,-513"/>
<text text-anchor="middle" x="587.49" y="-491.3" font-family="Times,serif" font-size="14.00">02:20:20:02:02:01</text>
</g>
<!-- 10.0.0.102:22001&#45;&#45;10.0.0.102:02:20:20:02:02:01 -->
<g id="edge30" class="edge">
<title>10.0.0.102:22001&#45;&#45;10.0.0.102:02:20:20:02:02:01</title>
<path fill="none" stroke="#8b0a50" d="M464.86,-508.5C478.57,-508.5 496.18,-508.5 513.75,-508.5"/>
</g>
<!-- 10.0.0.102:02:20:20:02:03:01 -->
<g id="node27" class="node">
<title>10.0.0.102:02:20:20:02:03:01</title>
<polygon fill="none" stroke="#8b0a50" points="660.99,-567 513.99,-567 513.99,-531 660.99,-531 660.99,-567"/>
<text text-anchor="middle" x="587.49" y="-545.3" font-family="Times,serif" font-size="14.00">02:20:20:02:03:01</text>
</g>
<!-- 10.0.0.102:22001&#45;&#45;10.0.0.102:02:20:20:02:03:01 -->
<g id="edge31" class="edge">
<title>10.0.0.102:22001&#45;&#45;10.0.0.102:02:20:20:02:03:01</title>
<path fill="none" stroke="#8b0a50" d="M464.86,-535.5C478.57,-535.5 496.18,-535.5 513.75,-535.5"/>
</g>
<!-- 10.0.0.102:22002 -->
<g id="node22" class="node">
<title>10.0.0.102:22002</title>
<ellipse fill="none" stroke="indigo" cx="439" cy="-603" rx="38.99" ry="18"/>
<text text-anchor="middle" x="439" y="-599.3" font-family="Times,serif" font-size="14.00">vlan 3</text>
</g>
<!-- 10.0.0.102:10.0.0.102:22002&#45;&#45;10.0.0.102:22002 -->
<g id="edge25" class="edge">
<title>10.0.0.102:10.0.0.102:22002&#45;&#45;10.0.0.102:22002</title>
<path fill="none" stroke="indigo" d="M364.01,-603C375.92,-603 388.51,-603 399.89,-603"/>
</g>
<!-- 10.0.0.102:02:20:20:02:04:01 -->
<g id="node28" class="node">
<title>10.0.0.102:02:20:20:02:04:01</title>
<polygon fill="none" stroke="indigo" points="660.99,-621 513.99,-621 513.99,-585 660.99,-585 660.99,-621"/>
<text text-anchor="middle" x="587.49" y="-599.3" font-family="Times,serif" font-size="14.00">02:20:20:02:04:01</text>
</g>
<!-- 10.0.0.102:22002&#45;&#45;10.0.0.102:02:20:20:02:04:01 -->
<g id="edge32" class="edge">
<title>10.0.0.102:22002&#45;&#45;10.0.0.102:02:20:20:02:04:01</title>
<path fill="none" stroke="indigo" d="M478.01,-603C489.1,-603 501.55,-603 513.97,-603"/>
</g>
<!-- 10.0.0.102:22003 -->
<g id="node24" class="node">
<title>10.0.0.102:22003</title>
<ellipse fill="none" stroke="darkgreen" cx="439" cy="-657" rx="38.99" ry="18"/>
<text text-anchor="middle" x="439" y="-653.3" font-family="Times,serif" font-size="14.00">vlan 4</text>
</g>
<!-- 10.0.0.102:10.0.0.102:22003&#45;&#45;10.0.0.102:22003 -->
<g id="edge28" class="edge">
<title>10.0.0.102:10.0.0.102:22003&#45;&#45;10.0.0.102:22003</title>
<path fill="none" stroke="darkgreen" d="M364.01,-657C375.92,-657 388.51,-657 399.89,-657"/>
</g>
<!-- 10.0.0.102:02:20:20:02:05:01 -->
<g id="node29" class="node">
<title>10.0.0.102:02:20:20:02:05:01</title>
<polygon fill="none" stroke="darkgreen" points="660.99,-675 513.99,-675 513.99,-639 660.99,-639 660.99,-675"/>
<text text-anchor="middle" x="587.49" y="-653.3" font-family="Times,serif" font-size="14.00">02:20:20:02:05:01</text>
</g>
<!-- 10.0.0.102:22003&#45;&#45;10.0.0.102:02:20:20:02:05:01 -->
<g id="edge33" class="edge">
<title>10.0.0.102:22003&#45;&#45;10.0.0.102:02:20:20:02:05:01</title>
<path fill="none" stroke="darkgreen" d="M478.01,-657C489.1,-657 501.55,-657 513.97,-657"/>
</g>
<!-- 10.0.0.102:02:20:20:02:06:01 -->
<g id="node30" class="node">
<title>10.0.0.102:02:20:20:02:06:01</title>
<polygon fill="none" stroke="darkgreen" points="660.99,-729 513.99,-729 513.99,-693 660.99,-693 660.99,-729"/>
<text text-anchor="middle" x="587.49" y="-707.3" font-family="Times,serif" font-size="14.00">02:20:20:02:06:01</text>
</g>
<!-- 10.0.0.102:22003&#45;&#45;10.0.0.102:02:20:20:02:06:01 -->
<g id="edge34" class="edge">
<title>10.0.0.102:22003&#45;&#45;10.0.0.102:02:20:20:02:06:01</title>
<path fill="none" stroke="darkgreen" d="M439.99,-675.28C439.99,-690.95 439.99,-711 439.99,-711 439.99,-711 476.87,-711 513.74,-711"/>
</g>
<!-- 10.0.0.103:10.0.0.103:22001 -->
<g id="node32" class="node">
<title>10.0.0.103:10.0.0.103:22001</title>
<polygon fill="none" stroke="#8b0a50" points="364,-200 266,-200 266,-164 364,-164 364,-200"/>
<text text-anchor="middle" x="315" y="-178.3" font-family="Times,serif" font-size="14.00">vtep 22001</text>
</g>
<!-- eth0_10.0.0.103&#45;&#45;10.0.0.103:10.0.0.103:22001 -->
<g id="edge36" class="edge">
<title>eth0_10.0.0.103&#45;&#45;10.0.0.103:10.0.0.103:22001</title>
<path fill="none" stroke="#8b0a50" d="M168.99,-337.94C168.99,-292.58 168.99,-182 168.99,-182 168.99,-182 223.56,-182 265.98,-182"/>
</g>
<!-- 10.0.0.103:10.0.0.103:22002 -->
<g id="node34" class="node">
<title>10.0.0.103:10.0.0.103:22002</title>
<polygon fill="none" stroke="indigo" points="364,-322 266,-322 266,-286 364,-286 364,-322"/>
<text text-anchor="middle" x="315" y="-300.3" font-family="Times,serif" font-size="14.00">vtep 22002</text>
</g>
<!-- eth0_10.0.0.103&#45;&#45;10.0.0.103:10.0.0.103:22002 -->
<g id="edge39" class="edge">
<title>eth0_10.0.0.103&#45;&#45;10.0.0.103:10.0.0.103:22002</title>
<path fill="none" stroke="indigo" d="M199.99,-337.87C199.99,-322.68 199.99,-304 199.99,-304 199.99,-304 234.63,-304 265.89,-304"/>
</g>
<!-- 10.0.0.103:10.0.0.103:22003 -->
<g id="node36" class="node">
<title>10.0.0.103:10.0.0.103:22003</title>
<polygon fill="none" stroke="darkgreen" points="364,-376 266,-376 266,-340 364,-340 364,-376"/>
<text text-anchor="middle" x="315" y="-354.3" font-family="Times,serif" font-size="14.00">vtep 22003</text>
</g>
<!-- eth0_10.0.0.103&#45;&#45;10.0.0.103:10.0.0.103:22003 -->
<g id="edge42" class="edge">
<title>eth0_10.0.0.103&#45;&#45;10.0.0.103:10.0.0.103:22003</title>
<path fill="none" stroke="darkgreen" d="M230.23,-358C241.75,-358 254.12,-358 265.75,-358"/>
</g>
<!-- 10.0.0.103:22001 -->
<g id="node33" class="node">
<title>10.0.0.103:22001</title>
<ellipse fill="none" stroke="#8b0a50" cx="439" cy="-115" rx="38.99" ry="18"/>
<text text-anchor="middle" x="439" y="-111.3" font-family="Times,serif" font-size="14.00">vlan 2</text>
</g>
<!-- 10.0.0.103:10.0.0.103:22001&#45;&#45;10.0.0.103:22001 -->
<g id="edge37" class="edge">
<title>10.0.0.103:10.0.0.103:22001&#45;&#45;10.0.0.103:22001</title>
<path fill="none" stroke="#8b0a50" d="M364.04,-171C403.7,-171 452.99,-171 452.99,-171 452.99,-171 452.99,-148.3 452.99,-131.8"/>
</g>
<!-- 10.0.0.103:02:20:20:03:01:01 -->
<g id="node38" class="node">
<title>10.0.0.103:02:20:20:03:01:01</title>
<polygon fill="none" stroke="#8b0a50" points="660.99,-52 513.99,-52 513.99,-16 660.99,-16 660.99,-52"/>
<text text-anchor="middle" x="587.49" y="-30.3" font-family="Times,serif" font-size="14.00">02:20:20:03:01:01</text>
</g>
<!-- 10.0.0.103:22001&#45;&#45;10.0.0.103:02:20:20:03:01:01 -->
<g id="edge44" class="edge">
<title>10.0.0.103:22001&#45;&#45;10.0.0.103:02:20:20:03:01:01</title>
<path fill="none" stroke="#8b0a50" d="M439.99,-96.62C439.99,-72.72 439.99,-34 439.99,-34 439.99,-34 476.87,-34 513.74,-34"/>
</g>
<!-- 10.0.0.103:02:20:20:03:02:01 -->
<g id="node39" class="node">
<title>10.0.0.103:02:20:20:03:02:01</title>
<polygon fill="none" stroke="#8b0a50" points="660.99,-106 513.99,-106 513.99,-70 660.99,-70 660.99,-106"/>
<text text-anchor="middle" x="587.49" y="-84.3" font-family="Times,serif" font-size="14.00">02:20:20:03:02:01</text>
</g>
<!-- 10.0.0.103:22001&#45;&#45;10.0.0.103:02:20:20:03:02:01 -->
<g id="edge45" class="edge">
<title>10.0.0.103:22001&#45;&#45;10.0.0.103:02:20:20:03:02:01</title>
<path fill="none" stroke="#8b0a50" d="M464.86,-101.5C478.57,-101.5 496.18,-101.5 513.75,-101.5"/>
</g>
<!-- 10.0.0.103:02:20:20:03:03:01 -->
<g id="node40" class="node">
<title>10.0.0.103:02:20:20:03:03:01</title>
<polygon fill="none" stroke="#8b0a50" points="660.99,-160 513.99,-160 513.99,-124 660.99,-124 660.99,-160"/>
<text text-anchor="middle" x="587.49" y="-138.3" font-family="Times,serif" font-size="14.00">02:20:20:03:03:01</text>
</g>
<!-- 10.0.0.103:22001&#45;&#45;10.0.0.103:02:20:20:03:03:01 -->
<g id="edge46" class="edge">
<title>10.0.0.103:22001&#45;&#45;10.0.0.103:02:20:20:03:03:01</title>
<path fill="none" stroke="#8b0a50" d="M464.86,-128.5C478.57,-128.5 496.18,-128.5 513.75,-128.5"/>
</g>
<!-- 10.0.0.103:22002 -->
<g id="node35" class="node">
<title>10.0.0.103:22002</title>
<ellipse fill="none" stroke="indigo" cx="439" cy="-277" rx="38.99" ry="18"/>
<text text-anchor="middle" x="439" y="-273.3" font-family="Times,serif" font-size="14.00">vlan 3</text>
</g>
<!-- 10.0.0.103:10.0.0.103:22002&#45;&#45;10.0.0.103:22002 -->
<g id="edge40" class="edge">
<title>10.0.0.103:10.0.0.103:22002&#45;&#45;10.0.0.103:22002</title>
<path fill="none" stroke="indigo" d="M364.01,-290.5C380.79,-290.5 398.91,-290.5 413.13,-290.5"/>
</g>
<!-- 10.0.0.103:02:20:20:03:04:01 -->
<g id="node41" class="node">
<title>10.0.0.103:02:20:20:03:04:01</title>
<polygon fill="none" stroke="indigo" points="660.99,-214 513.99,-214 513.99,-178 660.99,-178 660.99,-214"/>
<text text-anchor="middle" x="587.49" y="-192.3" font-family="Times,serif" font-size="14.00">02:20:20:03:04:01</text>
</g>
<!-- 10.0.0.103:22002&#45;&#45;10.0.0.103:02:20:20:03:04:01 -->
<g id="edge47" class="edge">
<title>10.0.0.103:22002&#45;&#45;10.0.0.103:02:20:20:03:04:01</title>
<path fill="none" stroke="indigo" d="M426.99,-259.7C426.99,-238.97 426.99,-207 426.99,-207 426.99,-207 471.63,-207 513.82,-207"/>
</g>
<!-- 10.0.0.103:02:20:20:03:06:01 -->
<g id="node42" class="node">
<title>10.0.0.103:02:20:20:03:06:01</title>
<polygon fill="none" stroke="indigo" points="660.99,-268 513.99,-268 513.99,-232 660.99,-232 660.99,-268"/>
<text text-anchor="middle" x="587.49" y="-246.3" font-family="Times,serif" font-size="14.00">02:20:20:03:06:01</text>
</g>
<!-- 10.0.0.103:22002&#45;&#45;10.0.0.103:02:20:20:03:06:01 -->
<g id="edge48" class="edge">
<title>10.0.0.103:22002&#45;&#45;10.0.0.103:02:20:20:03:06:01</title>
<path fill="none" stroke="indigo" d="M464.86,-263.5C478.57,-263.5 496.18,-263.5 513.75,-263.5"/>
</g>
<!-- 10.0.0.103:02:20:20:03:07:01 -->
<g id="node43" class="node">
<title>10.0.0.103:02:20:20:03:07:01</title>
<polygon fill="none" stroke="indigo" points="660.99,-322 513.99,-322 513.99,-286 660.99,-286 660.99,-322"/>
<text text-anchor="middle" x="587.49" y="-300.3" font-family="Times,serif" font-size="14.00">02:20:20:03:07:01</text>
</g>
<!-- 10.0.0.103:22002&#45;&#45;10.0.0.103:02:20:20:03:07:01 -->
<g id="edge49" class="edge">
<title>10.0.0.103:22002&#45;&#45;10.0.0.103:02:20:20:03:07:01</title>
<path fill="none" stroke="indigo" d="M464.86,-290.5C478.57,-290.5 496.18,-290.5 513.75,-290.5"/>
</g>
<!-- 10.0.0.103:22003 -->
<g id="node37" class="node">
<title>10.0.0.103:22003</title>
<ellipse fill="none" stroke="darkgreen" cx="439" cy="-358" rx="38.99" ry="18"/>
<text text-anchor="middle" x="439" y="-354.3" font-family="Times,serif" font-size="14.00">vlan 4</text>
</g>
<!-- 10.0.0.103:10.0.0.103:22003&#45;&#45;10.0.0.103:22003 -->
<g id="edge43" class="edge">
<title>10.0.0.103:10.0.0.103:22003&#45;&#45;10.0.0.103:22003</title>
<path fill="none" stroke="darkgreen" d="M364.01,-358C375.92,-358 388.51,-358 399.89,-358"/>
</g>
<!-- 10.0.0.103:02:20:20:03:05:01 -->
<g id="node44" class="node">
<title>10.0.0.103:02:20:20:03:05:01</title>
<polygon fill="none" stroke="darkgreen" points="660.99,-376 513.99,-376 513.99,-340 660.99,-340 660.99,-376"/>
<text text-anchor="middle" x="587.49" y="-354.3" font-family="Times,serif" font-size="14.00">02:20:20:03:05:01</text>
</g>
<!-- 10.0.0.103:22003&#45;&#45;10.0.0.103:02:20:20:03:05:01 -->
<g id="edge50" class="edge">
<title>10.0.0.103:22003&#45;&#45;10.0.0.103:02:20:20:03:05:01</title>
<path fill="none" stroke="darkgreen" d="M478.01,-358C489.1,-358 501.55,-358 513.97,-358"/>
</g>
</g>
</svg>
