<?xml version="1.0" encoding="UTF-8" standalone="no"?>
<!DOCTYPE svg PUBLIC "-//W3C//DTD SVG 1.1//EN"
 "http://www.w3.org/Graphics/SVG/1.1/DTD/svg11.dtd">
<!-- Generated by graphviz version 2.43.0 (0)
 -->
<!-- Title: G Pages: 1 -->
<svg width="684pt" height="1183pt"
 viewBox="0.00 0.00 683.99 1183.00" xmlns="http://www.w3.org/2000/svg" xmlns:xlink="http://www.w3.org/1999/xlink">
<g id="graph0" class="graph" transform="scale(1 1) rotate(0) translate(4 1179)">
<title>G</title>
<polygon fill="white" stroke="transparent" points="-4,4 -4,-1179 679.99,-1179 679.99,4 -4,4"/>
<g id="clust1" class="cluster">
<title>cluster_10.0.0.101</title>
<path fill="none" stroke="black" d="M141,-768C141,-768 655.99,-768 655.99,-768 661.99,-768 667.99,-774 667.99,-780 667.99,-780 667.99,-1155 667.99,-1155 667.99,-1161 661.99,-1167 655.99,-1167 655.99,-1167 141,-1167 141,-1167 135,-1167 129,-1161 129,-1155 129,-1155 129,-780 129,-780 129,-774 135,-768 141,-768"/>
<text text-anchor="middle" x="398.5" y="-1151.8" font-family="Times,serif" font-size="14.00">Host 1</text>
</g>
<g id="clust2" class="cluster">
<title>cluster_10.0.0.102</title>
<path fill="none" stroke="black" d="M141,-415C141,-415 655.99,-415 655.99,-415 661.99,-415 667.99,-421 667.99,-427 667.99,-427 667.99,-748 667.99,-748 667.99,-754 661.99,-760 655.99,-760 655.99,-760 141,-760 141,-760 135,-760 129,-754 129,-748 129,-748 129,-427 129,-427 129,-421 135,-415 141,-415"/>
<text text-anchor="middle" x="398.5" y="-744.8" font-family="Times,serif" font-size="14.00">Host 2</text>
</g>
<g id="clust3" class="cluster">
<title>cluster_10.0.0.103</title>
<path fill="none" stroke="black" d="M141,-8C141,-8 655.99,-8 655.99,-8 661.99,-8 667.99,-14 667.99,-20 667.99,-20 667.99,-395 667.99,-395 667.99,-401 661.99,-407 655.99,-407 655.99,-407 141,-407 141,-407 135,-407 129,-401 129,-395 129,-395 129,-20 129,-20 129,-14 135,-8 141,-8"/>
<text text-anchor="middle" x="398.5" y="-391.8" font-family="Times,serif" font-size="14.00">Host 3</text>
</g>
<!-- cloud -->
<g id="node1" class="node">
<title>cloud</title>
<polygon fill="none" stroke="black" points="101,-648 0,-648 0,-612 101,-612 101,-648"/>
<text text-anchor="middle" x="50.5" y="-626.3" font-family="Times,serif" font-size="14.00">infra switch</text>
</g>
<!-- eth0_10.0.0.101 -->
<g id="node2" class="node">
<title>eth0_10.0.0.101</title>
<polygon fill="none" stroke="black" points="230,-821 137,-821 137,-783 230,-783 230,-821"/>
<text text-anchor="middle" x="183.5" y="-805.8" font-family="Times,serif" font-size="14.00">eth0</text>
<text text-anchor="middle" x="183.5" y="-790.8" font-family="Times,serif" font-size="14.00">10.0.0.101</text>
</g>
<!-- cloud&#45;&#45;eth0_10.0.0.101 -->
<g id="edge1" class="edge">
<title>cloud&#45;&#45;eth0_10.0.0.101</title>
<path fill="none" stroke="black" d="M50.99,-648.08C50.99,-692.24 50.99,-802 50.99,-802 50.99,-802 98.63,-802 136.78,-802"/>
</g>
<!-- eth0_10.0.0.102 -->
<g id="node18" class="node">
<title>eth0_10.0.0.102</title>
<polygon fill="none" stroke="black" points="230,-649 137,-649 137,-611 230,-611 230,-649"/>
<text text-anchor="middle" x="183.5" y="-633.8" font-family="Times,serif" font-size="14.00">eth0</text>
<text text-anchor="middle" x="183.5" y="-618.8" font-family="Times,serif" font-size="14.00">10.0.0.102</text>
</g>
<!-- cloud&#45;&#45;eth0_10.0.0.102 -->
<g id="edge20" class="edge">
<title>cloud&#45;&#45;eth0_10.0.0.102</title>
<path fill="none" stroke="black" d="M101.16,-630C112.91,-630 125.35,-630 136.91,-630"/>
</g>
<!-- eth0_10.0.0.103 -->
<g id="node31" class="node">
<title>eth0_10.0.0.103</title>
<polygon fill="none" stroke="black" points="230,-376 137,-376 137,-338 230,-338 230,-376"/>
<text text-anchor="middle" x="183.5" y="-360.8" font-family="Times,serif" font-size="14.00">eth0</text>
<text text-anchor="middle" x="183.5" y="-345.8" font-family="Times,serif" font-size="14.00">10.0.0.103</text>
</g>
<!-- cloud&#45;&#45;eth0_10.0.0.103 -->
<g id="edge35" class="edge">
<title>cloud&#45;&#45;eth0_10.0.0.103</title>
<path fill="none" stroke="black" d="M50.99,-611.66C50.99,-550.45 50.99,-357 50.99,-357 50.99,-357 98.63,-357 136.78,-357"/>
</g>
<!-- 10.0.0.101:10.0.0.101:22001 -->
<g id="node3" class="node">
<title>10.0.0.101:10.0.0.101:22001</title>
<polygon fill="none" stroke="#8b0a50" points="364,-827 266,-827 266,-791 364,-791 364,-827"/>
<text text-anchor="middle" x="315" y="-805.3" font-family="Times,serif" font-size="14.00">vtep 22001</text>
</g>
<!-- eth0_10.0.0.101&#45;&#45;10.0.0.101:10.0.0.101:22001 -->
<g id="edge2" class="edge">
<title>eth0_10.0.0.101&#45;&#45;10.0.0.101:10.0.0.101:22001</title>
<path fill="none" stroke="#8b0a50" d="M230.23,-806C241.75,-806 254.12,-806 265.75,-806"/>
</g>
<!-- 10.0.0.101:10.0.0.101:22002 -->
<g id="node5" class="node">
<title>10.0.0.101:10.0.0.101:22002</title>
<polygon fill="none" stroke="indigo" points="364,-921 266,-921 266,-885 364,-885 364,-921"/>
<text text-anchor="middle" x="315" y="-899.3" font-family="Times,serif" font-size="14.00">vtep 22002</text>
</g>
<!-- eth0_10.0.0.101&#45;&#45;10.0.0.101:10.0.0.101:22002 -->
<g id="edge5" class="edge">
<title>eth0_10.0.0.101&#45;&#45;10.0.0.101:10.0.0.101:22002</title>
<path fill="none" stroke="indigo" d="M206.99,-821.47C206.99,-850.82 206.99,-903 206.99,-903 206.99,-903 237.25,-903 265.74,-903"/>
</g>
<!-- 10.0.0.101:10.0.0.101:22003 -->
<g id="node7" class="node">
<title>10.0.0.101:10.0.0.101:22003</title>
<polygon fill="none" stroke="darkgreen" points="364,-995 266,-995 266,-959 364,-959 364,-995"/>
<text text-anchor="middle" x="315" y="-973.3" font-family="Times,serif" font-size="14.00">vtep 22003</text>
</g>
<!-- eth0_10.0.0.101&#45;&#45;10.0.0.101:10.0.0.101:22003 -->
<g id="edge8" class="edge">
<title>eth0_10.0.0.101&#45;&#45;10.0.0.101:10.0.0.101:22003</title>
<path fill="none" stroke="darkgreen" d="M183.99,-821.06C183.99,-866.42 183.99,-977 183.99,-977 183.99,-977 228.67,-977 265.85,-977"/>
</g>
<!-- 10.0.0.101:10.0.0.101:22004 -->
<g id="node9" class="node">
<title>10.0.0.101:10.0.0.101:22004</title>
<polygon fill="none" stroke="crimson" points="364,-1059 266,-1059 266,-1023 364,-1023 364,-1059"/>
<text text-anchor="middle" x="315" y="-1037.3" font-family="Times,serif" font-size="14.00">vtep 22004</text>
</g>
<!-- eth0_10.0.0.101&#45;&#45;10.0.0.101:10.0.0.101:22004 -->
<g id="edge11" class="edge">
<title>eth0_10.0.0.101&#45;&#45;10.0.0.101:10.0.0.101:22004</title>
<path fill="none" stroke="crimson" d="M160.99,-821.15C160.99,-877.87 160.99,-1041 160.99,-1041 160.99,-1041 220.78,-1041 265.85,-1041"/>
</g>
<!-- 10.0.0.101:22001 -->
<g id="node4" class="node">
<title>10.0.0.101:22001</title>
<ellipse fill="none" stroke="#8b0a50" cx="439" cy="-822" rx="38.99" ry="18"/>
<text text-anchor="middle" x="439" y="-818.3" font-family="Times,serif" font-size="14.00">vlan 2</text>
</g>
<!-- 10.0.0.101:10.0.0.101:22001&#45;&#45;10.0.0.101:22001 -->
<g id="edge3" class="edge">
<title>10.0.0.101:10.0.0.101:22001&#45;&#45;10.0.0.101:22001</title>
<path fill="none" stroke="#8b0a50" d="M364.01,-815.5C376.87,-815.5 390.51,-815.5 402.58,-815.5"/>
</g>
<!-- 10.0.0.101:12:46:e3:c9:08:6b -->
<g id="node11" class="node">
<title>10.0.0.101:12:46:e3:c9:08:6b</title>
<polygon fill="none" stroke="#8b0a50" points="659.49,-812 514.49,-812 514.49,-776 659.49,-776 659.49,-812"/>
<text text-anchor="middle" x="586.99" y="-790.3" font-family="Times,serif" font-size="14.00">12:46:e3:c9:08:6b</text>
</g>
<!-- 10.0.0.101:22001&#45;&#45;10.0.0.101:12:46:e3:c9:08:6b -->
<g id="edge13" class="edge">
<title>10.0.0.101:22001&#45;&#45;10.0.0.101:12:46:e3:c9:08:6b</title>
<path fill="none" stroke="#8b0a50" d="M463.77,-808C477.76,-808 496.04,-808 514.23,-808"/>
</g>
<!-- 10.0.0.101:92:94:53:a2:04:de -->
<g id="node12" class="node">
<title>10.0.0.101:92:94:53:a2:04:de</title>
<polygon fill="none" stroke="#8b0a50" points="659.99,-866 513.99,-866 513.99,-830 659.99,-830 659.99,-866"/>
<text text-anchor="middle" x="586.99" y="-844.3" font-family="Times,serif" font-size="14.00">92:94:53:a2:04:de</text>
</g>
<!-- 10.0.0.101:22001&#45;&#45;10.0.0.101:92:94:53:a2:04:de -->
<g id="edge14" class="edge">
<title>10.0.0.101:22001&#45;&#45;10.0.0.101:92:94:53:a2:04:de</title>
<path fill="none" stroke="#8b0a50" d="M466.14,-835C479.66,-835 496.72,-835 513.73,-835"/>
</g>
<!-- 10.0.0.101:fa:cd:dc:5d:70:0d -->
<g id="node13" class="node">
<title>10.0.0.101:fa:cd:dc:5d:70:0d</title>
<polygon fill="none" stroke="#8b0a50" points="656.99,-920 516.99,-920 516.99,-884 656.99,-884 656.99,-920"/>
<text text-anchor="middle" x="586.99" y="-898.3" font-family="Times,serif" font-size="14.00">fa:cd:dc:5d:70:0d</text>
</g>
<!-- 10.0.0.101:22001&#45;&#45;10.0.0.101:fa:cd:dc:5d:70:0d -->
<g id="edge15" class="edge">
<title>10.0.0.101:22001&#45;&#45;10.0.0.101:fa:cd:dc:5d:70:0d</title>
<path fill="none" stroke="#8b0a50" d="M452.99,-838.94C452.99,-860.97 452.99,-896.67 452.99,-896.67 452.99,-896.67 484.43,-896.67 516.85,-896.67"/>
</g>
<!-- 10.0.0.101:22002 -->
<g id="node6" class="node">
<title>10.0.0.101:22002</title>
<ellipse fill="none" stroke="indigo" cx="439" cy="-956" rx="38.99" ry="18"/>
<text text-anchor="middle" x="439" y="-952.3" font-family="Times,serif" font-size="14.00">vlan 4</text>
</g>
<!-- 10.0.0.101:10.0.0.101:22002&#45;&#45;10.0.0.101:22002 -->
<g id="edge6" class="edge">
<title>10.0.0.101:10.0.0.101:22002&#45;&#45;10.0.0.101:22002</title>
<path fill="none" stroke="indigo" d="M364.12,-908.33C394.21,-908.33 426.99,-908.33 426.99,-908.33 426.99,-908.33 426.99,-925.14 426.99,-938.79"/>
</g>
<!-- 10.0.0.101:26:a5:df:14:3a:23 -->
<g id="node14" class="node">
<title>10.0.0.101:26:a5:df:14:3a:23</title>
<polygon fill="none" stroke="indigo" points="657.99,-974 515.99,-974 515.99,-938 657.99,-938 657.99,-974"/>
<text text-anchor="middle" x="586.99" y="-952.3" font-family="Times,serif" font-size="14.00">26:a5:df:14:3a:23</text>
</g>
<!-- 10.0.0.101:22002&#45;&#45;10.0.0.101:26:a5:df:14:3a:23 -->
<g id="edge16" class="edge">
<title>10.0.0.101:22002&#45;&#45;10.0.0.101:26:a5:df:14:3a:23</title>
<path fill="none" stroke="indigo" d="M478.27,-956C489.83,-956 502.85,-956 515.76,-956"/>
</g>
<!-- 10.0.0.101:fa:af:17:da:9a:67 -->
<g id="node15" class="node">
<title>10.0.0.101:fa:af:17:da:9a:67</title>
<polygon fill="none" stroke="indigo" points="655.49,-1028 518.49,-1028 518.49,-992 655.49,-992 655.49,-1028"/>
<text text-anchor="middle" x="586.99" y="-1006.3" font-family="Times,serif" font-size="14.00">fa:af:17:da:9a:67</text>
</g>
<!-- 10.0.0.101:22002&#45;&#45;10.0.0.101:fa:af:17:da:9a:67 -->
<g id="edge17" class="edge">
<title>10.0.0.101:22002&#45;&#45;10.0.0.101:fa:af:17:da:9a:67</title>
<path fill="none" stroke="indigo" d="M452.99,-972.98C452.99,-987.82 452.99,-1007 452.99,-1007 452.99,-1007 485.45,-1007 518.42,-1007"/>
</g>
<!-- 10.0.0.101:22003 -->
<g id="node8" class="node">
<title>10.0.0.101:22003</title>
<ellipse fill="none" stroke="darkgreen" cx="439" cy="-1037" rx="38.99" ry="18"/>
<text text-anchor="middle" x="439" y="-1033.3" font-family="Times,serif" font-size="14.00">vlan 5</text>
</g>
<!-- 10.0.0.101:10.0.0.101:22003&#45;&#45;10.0.0.101:22003 -->
<g id="edge9" class="edge">
<title>10.0.0.101:10.0.0.101:22003&#45;&#45;10.0.0.101:22003</title>
<path fill="none" stroke="darkgreen" d="M364.12,-983C394.21,-983 426.99,-983 426.99,-983 426.99,-983 426.99,-1003.83 426.99,-1019.62"/>
</g>
<!-- 10.0.0.101:b2:b2:fd:c0:4f:f5 -->
<g id="node16" class="node">
<title>10.0.0.101:b2:b2:fd:c0:4f:f5</title>
<polygon fill="none" stroke="darkgreen" points="653.99,-1082 519.99,-1082 519.99,-1046 653.99,-1046 653.99,-1082"/>
<text text-anchor="middle" x="586.99" y="-1060.3" font-family="Times,serif" font-size="14.00">b2:b2:fd:c0:4f:f5</text>
</g>
<!-- 10.0.0.101:22003&#45;&#45;10.0.0.101:b2:b2:fd:c0:4f:f5 -->
<g id="edge18" class="edge">
<title>10.0.0.101:22003&#45;&#45;10.0.0.101:b2:b2:fd:c0:4f:f5</title>
<path fill="none" stroke="darkgreen" d="M465.11,-1050.5C480.38,-1050.5 500.42,-1050.5 519.82,-1050.5"/>
</g>
<!-- 10.0.0.101:22004 -->
<g id="node10" class="node">
<title>10.0.0.101:22004</title>
<ellipse fill="none" stroke="crimson" cx="439" cy="-1104" rx="38.99" ry="18"/>
<text text-anchor="middle" x="439" y="-1100.3" font-family="Times,serif" font-size="14.00">vlan 3</text>
</g>
<!-- 10.0.0.101:10.0.0.101:22004&#45;&#45;10.0.0.101:22004 -->
<g id="edge12" class="edge">
<title>10.0.0.101:10.0.0.101:22004&#45;&#45;10.0.0.101:22004</title>
<path fill="none" stroke="crimson" d="M315.99,-1059.22C315.99,-1077.83 315.99,-1104 315.99,-1104 315.99,-1104 363.74,-1104 399.74,-1104"/>
</g>
<!-- 10.0.0.101:ca:8c:66:d1:96:9f -->
<g id="node17" class="node">
<title>10.0.0.101:ca:8c:66:d1:96:9f</title>
<polygon fill="none" stroke="crimson" points="656.99,-1136 516.99,-1136 516.99,-1100 656.99,-1100 656.99,-1136"/>
<text text-anchor="middle" x="586.99" y="-1114.3" font-family="Times,serif" font-size="14.00">ca:8c:66:d1:96:9f</text>
</g>
<!-- 10.0.0.101:22004&#45;&#45;10.0.0.101:ca:8c:66:d1:96:9f -->
<g id="edge19" class="edge">
<title>10.0.0.101:22004&#45;&#45;10.0.0.101:ca:8c:66:d1:96:9f</title>
<path fill="none" stroke="crimson" d="M475.2,-1111C487.78,-1111 502.35,-1111 516.73,-1111"/>
</g>
<!-- 10.0.0.102:10.0.0.102:22001 -->
<g id="node19" class="node">
<title>10.0.0.102:10.0.0.102:22001</title>
<polygon fill="none" stroke="#8b0a50" points="364,-553 266,-553 266,-517 364,-517 364,-553"/>
<text text-anchor="middle" x="315" y="-531.3" font-family="Times,serif" font-size="14.00">vtep 22001</text>
</g>
<!-- eth0_10.0.0.102&#45;&#45;10.0.0.102:10.0.0.102:22001 -->
<g id="edge21" class="edge">
<title>eth0_10.0.0.102&#45;&#45;10.0.0.102:10.0.0.102:22001</title>
<path fill="none" stroke="#8b0a50" d="M183.99,-610.78C183.99,-583.02 183.99,-535 183.99,-535 183.99,-535 228.67,-535 265.85,-535"/>
</g>
<!-- 10.0.0.102:10.0.0.102:22002 -->
<g id="node21" class="node">
<title>10.0.0.102:10.0.0.102:22002</title>
<polygon fill="none" stroke="indigo" points="364,-621 266,-621 266,-585 364,-585 364,-621"/>
<text text-anchor="middle" x="315" y="-599.3" font-family="Times,serif" font-size="14.00">vtep 22002</text>
</g>
<!-- eth0_10.0.0.102&#45;&#45;10.0.0.102:10.0.0.102:22002 -->
<g id="edge24" class="edge">
<title>eth0_10.0.0.102&#45;&#45;10.0.0.102:10.0.0.102:22002</title>
<path fill="none" stroke="indigo" d="M230.23,-616C241.75,-616 254.12,-616 265.75,-616"/>
</g>
<!-- 10.0.0.102:10.0.0.102:22003 -->
<g id="node23" class="node">
<title>10.0.0.102:10.0.0.102:22003</title>
<polygon fill="none" stroke="darkgreen" points="364,-675 266,-675 266,-639 364,-639 364,-675"/>
<text text-anchor="middle" x="315" y="-653.3" font-family="Times,serif" font-size="14.00">vtep 22003</text>
</g>
<!-- eth0_10.0.0.102&#45;&#45;10.0.0.102:10.0.0.102:22003 -->
<g id="edge27" class="edge">
<title>eth0_10.0.0.102&#45;&#45;10.0.0.102:10.0.0.102:22003</title>
<path fill="none" stroke="darkgreen" d="M230.23,-644C241.75,-644 254.12,-644 265.75,-644"/>
</g>
<!-- 10.0.0.102:22001 -->
<g id="node20" class="node">
<title>10.0.0.102:22001</title>
<ellipse fill="none" stroke="#8b0a50" cx="439" cy="-522" rx="38.99" ry="18"/>
<text text-anchor="middle" x="439" y="-518.3" font-family="Times,serif" font-size="14.00">vlan 2</text>
</g>
<!-- 10.0.0.102:10.0.0.102:22001&#45;&#45;10.0.0.102:22001 -->
<g id="edge22" class="edge">
<title>10.0.0.102:10.0.0.102:22001&#45;&#45;10.0.0.102:22001</title>
<path fill="none" stroke="#8b0a50" d="M364.01,-528.5C376.87,-528.5 390.51,-528.5 402.58,-528.5"/>
</g>
<!-- 10.0.0.102:3e:f6:2f:93:f4:e0 -->
<g id="node25" class="node">
<title>10.0.0.102:3e:f6:2f:93:f4:e0</title>
<polygon fill="none" stroke="#8b0a50" points="653.99,-459 519.99,-459 519.99,-423 653.99,-423 653.99,-459"/>
<text text-anchor="middle" x="586.99" y="-437.3" font-family="Times,serif" font-size="14.00">3e:f6:2f:93:f4:e0</text>
</g>
<!-- 10.0.0.102:22001&#45;&#45;10.0.0.102:3e:f6:2f:93:f4:e0 -->
<g id="edge29" class="edge">
<title>10.0.0.102:22001&#45;&#45;10.0.0.102:3e:f6:2f:93:f4:e0</title>
<path fill="none" stroke="#8b0a50" d="M439.99,-503.62C439.99,-479.72 439.99,-441 439.99,-441 439.99,-441 481.18,-441 519.95,-441"/>
</g>
<!-- 10.0.0.102:b6:93:57:80:2d:ae -->
<g id="node26" class="node">
<title>10.0.0.102:b6:93:57:80:2d:ae</title>
<polygon fill="none" stroke="#8b0a50" points="659.99,-513 513.99,-513 513.99,-477 659.99,-477 659.99,-513"/>
<text text-anchor="middle" x="586.99" y="-491.3" font-family="Times,serif" font-size="14.00">b6:93:57:80:2d:ae</text>
</g>
<!-- 10.0.0.102:22001&#45;&#45;10.0.0.102:b6:93:57:80:2d:ae -->
<g id="edge30" class="edge">
<title>10.0.0.102:22001&#45;&#45;10.0.0.102:b6:93:57:80:2d:ae</title>
<path fill="none" stroke="#8b0a50" d="M465.11,-508.5C478.81,-508.5 496.33,-508.5 513.8,-508.5"/>
</g>
<!-- 10.0.0.102:e2:db:57:33:ac:3a -->
<g id="node27" class="node">
<title>10.0.0.102:e2:db:57:33:ac:3a</title>
<polygon fill="none" stroke="#8b0a50" points="658.49,-567 515.49,-567 515.49,-531 658.49,-531 658.49,-567"/>
<text text-anchor="middle" x="586.99" y="-545.3" font-family="Times,serif" font-size="14.00">e2:db:57:33:ac:3a</text>
</g>
<!-- 10.0.0.102:22001&#45;&#45;10.0.0.102:e2:db:57:33:ac:3a -->
<g id="edge31" class="edge">
<title>10.0.0.102:22001&#45;&#45;10.0.0.102:e2:db:57:33:ac:3a</title>
<path fill="none" stroke="#8b0a50" d="M465.11,-535.5C479.22,-535.5 497.4,-535.5 515.38,-535.5"/>
</g>
<!-- 10.0.0.102:22002 -->
<g id="node22" class="node">
<title>10.0.0.102:22002</title>
<ellipse fill="none" stroke="indigo" cx="439" cy="-603" rx="38.99" ry="18"/>
<text text-anchor="middle" x="439" y="-599.3" font-family="Times,serif" font-size="14.00">vlan 3</text>
</g>
<!-- 10.0.0.102:10.0.0.102:22002&#45;&#45;10.0.0.102:22002 -->
<g id="edge25" class="edge">
<title>10.0.0.102:10.0.0.102:22002&#45;&#45;10.0.0.102:22002</title>
<path fill="none" stroke="indigo" d="M364.01,-603C375.92,-603 388.51,-603 399.89,-603"/>
</g>
<!-- 10.0.0.102:96:c2:70:bb:ad:77 -->
<g id="node28" class="node">
<title>10.0.0.102:96:c2:70:bb:ad:77</title>
<polygon fill="none" stroke="indigo" points="659.49,-621 514.49,-621 514.49,-585 659.49,-585 659.49,-621"/>
<text text-anchor="middle" x="586.99" y="-599.3" font-family="Times,serif" font-size="14.00">96:c2:70:bb:ad:77</text>
</g>
<!-- 10.0.0.102:22002&#45;&#45;10.0.0.102:96:c2:70:bb:ad:77 -->
<g id="edge32" class="edge">
<title>10.0.0.102:22002&#45;&#45;10.0.0.102:96:c2:70:bb:ad:77</title>
<path fill="none" stroke="indigo" d="M478.27,-603C489.4,-603 501.89,-603 514.33,-603"/>
</g>
<!-- 10.0.0.102:22003 -->
<g id="node24" class="node">
<title>10.0.0.102:22003</title>
<ellipse fill="none" stroke="darkgreen" cx="439" cy="-657" rx="38.99" ry="18"/>
<text text-anchor="middle" x="439" y="-653.3" font-family="Times,serif" font-size="14.00">vlan 4</text>
</g>
<!-- 10.0.0.102:10.0.0.102:22003&#45;&#45;10.0.0.102:22003 -->
<g id="edge28" class="edge">
<title>10.0.0.102:10.0.0.102:22003&#45;&#45;10.0.0.102:22003</title>
<path fill="none" stroke="darkgreen" d="M364.01,-657C375.92,-657 388.51,-657 399.89,-657"/>
</g>
<!-- 10.0.0.102:06:49:05:b9:23:e3 -->
<g id="node29" class="node">
<title>10.0.0.102:06:49:05:b9:23:e3</title>
<polygon fill="none" stroke="darkgreen" points="659.99,-675 513.99,-675 513.99,-639 659.99,-639 659.99,-675"/>
<text text-anchor="middle" x="586.99" y="-653.3" font-family="Times,serif" font-size="14.00">06:49:05:b9:23:e3</text>
</g>
<!-- 10.0.0.102:22003&#45;&#45;10.0.0.102:06:49:05:b9:23:e3 -->
<g id="edge33" class="edge">
<title>10.0.0.102:22003&#45;&#45;10.0.0.102:06:49:05:b9:23:e3</title>
<path fill="none" stroke="darkgreen" d="M478.27,-657C489.23,-657 501.51,-657 513.75,-657"/>
</g>
<!-- 10.0.0.102:12:4a:ae:dc:aa:f2 -->
<g id="node30" class="node">
<title>10.0.0.102:12:4a:ae:dc:aa:f2</title>
<polygon fill="none" stroke="darkgreen" points="655.99,-729 517.99,-729 517.99,-693 655.99,-693 655.99,-729"/>
<text text-anchor="middle" x="586.99" y="-707.3" font-family="Times,serif" font-size="14.00">12:4a:ae:dc:aa:f2</text>
</g>
<!-- 10.0.0.102:22003&#45;&#45;10.0.0.102:12:4a:ae:dc:aa:f2 -->
<g id="edge34" class="edge">
<title>10.0.0.102:22003&#45;&#45;10.0.0.102:12:4a:ae:dc:aa:f2</title>
<path fill="none" stroke="darkgreen" d="M439.99,-675.28C439.99,-690.95 439.99,-711 439.99,-711 439.99,-711 479.67,-711 517.8,-711"/>
</g>
<!-- 10.0.0.103:10.0.0.103:22001 -->
<g id="node32" class="node">
<title>10.0.0.103:10.0.0.103:22001</title>
<polygon fill="none" stroke="#8b0a50" points="364,-200 266,-200 266,-164 364,-164 364,-200"/>
<text text-anchor="middle" x="315" y="-178.3" font-family="Times,serif" font-size="14.00">vtep 22001</text>
</g>
<!-- eth0_10.0.0.103&#45;&#45;10.0.0.103:10.0.0.103:22001 -->
<g id="edge36" class="edge">
<title>eth0_10.0.0.103&#45;&#45;10.0.0.103:10.0.0.103:22001</title>
<path fill="none" stroke="#8b0a50" d="M168.99,-337.94C168.99,-292.58 168.99,-182 168.99,-182 168.99,-182 223.56,-182 265.98,-182"/>
</g>
<!-- 10.0.0.103:10.0.0.103:22002 -->
<g id="node34" class="node">
<title>10.0.0.103:10.0.0.103:22002</title>
<polygon fill="none" stroke="indigo" points="364,-322 266,-322 266,-286 364,-286 364,-322"/>
<text text-anchor="middle" x="315" y="-300.3" font-family="Times,serif" font-size="14.00">vtep 22002</text>
</g>
<!-- eth0_10.0.0.103&#45;&#45;10.0.0.103:10.0.0.103:22002 -->
<g id="edge39" class="edge">
<title>eth0_10.0.0.103&#45;&#45;10.0.0.103:10.0.0.103:22002</title>
<path fill="none" stroke="indigo" d="M199.99,-337.87C199.99,-322.68 199.99,-304 199.99,-304 199.99,-304 234.63,-304 265.89,-304"/>
</g>
<!-- 10.0.0.103:10.0.0.103:22003 -->
<g id="node36" class="node">
<title>10.0.0.103:10.0.0.103:22003</title>
<polygon fill="none" stroke="darkgreen" points="364,-376 266,-376 266,-340 364,-340 364,-376"/>
<text text-anchor="middle" x="315" y="-354.3" font-family="Times,serif" font-size="14.00">vtep 22003</text>
</g>
<!-- eth0_10.0.0.103&#45;&#45;10.0.0.103:10.0.0.103:22003 -->
<g id="edge42" class="edge">
<title>eth0_10.0.0.103&#45;&#45;10.0.0.103:10.0.0.103:22003</title>
<path fill="none" stroke="darkgreen" d="M230.23,-358C241.75,-358 254.12,-358 265.75,-358"/>
</g>
<!-- 10.0.0.103:22001 -->
<g id="node33" class="node">
<title>10.0.0.103:22001</title>
<ellipse fill="none" stroke="#8b0a50" cx="439" cy="-115" rx="38.99" ry="18"/>
<text text-anchor="middle" x="439" y="-111.3" font-family="Times,serif" font-size="14.00">vlan 2</text>
</g>
<!-- 10.0.0.103:10.0.0.103:22001&#45;&#45;10.0.0.103:22001 -->
<g id="edge37" class="edge">
<title>10.0.0.103:10.0.0.103:22001&#45;&#45;10.0.0.103:22001</title>
<path fill="none" stroke="#8b0a50" d="M364.04,-171C403.7,-171 452.99,-171 452.99,-171 452.99,-171 452.99,-148.3 452.99,-131.8"/>
</g>
<!-- 10.0.0.103:8e:be:15:11:bd:9f -->
<g id="node38" class="node">
<title>10.0.0.103:8e:be:15:11:bd:9f</title>
<polygon fill="none" stroke="#8b0a50" points="657.99,-52 515.99,-52 515.99,-16 657.99,-16 657.99,-52"/>
<text text-anchor="middle" x="586.99" y="-30.3" font-family="Times,serif" font-size="14.00">8e:be:15:11:bd:9f</text>
</g>
<!-- 10.0.0.103:22001&#45;&#45;10.0.0.103:8e:be:15:11:bd:9f -->
<g id="edge44" class="edge">
<title>10.0.0.103:22001&#45;&#45;10.0.0.103:8e:be:15:11:bd:9f</title>
<path fill="none" stroke="#8b0a50" d="M439.99,-96.62C439.99,-72.72 439.99,-34 439.99,-34 439.99,-34 478.19,-34 515.65,-34"/>
</g>
<!-- 10.0.0.103:96:9a:f8:11:8c:41 -->
<g id="node39" class="node">
<title>10.0.0.103:96:9a:f8:11:8c:41</title>
<polygon fill="none" stroke="#8b0a50" points="657.49,-106 516.49,-106 516.49,-70 657.49,-70 657.49,-106"/>
<text text-anchor="middle" x="586.99" y="-84.3" font-family="Times,serif" font-size="14.00">96:9a:f8:11:8c:41</text>
</g>
<!-- 10.0.0.103:22001&#45;&#45;10.0.0.103:96:9a:f8:11:8c:41 -->
<g id="edge45" class="edge">
<title>10.0.0.103:22001&#45;&#45;10.0.0.103:96:9a:f8:11:8c:41</title>
<path fill="none" stroke="#8b0a50" d="M465.11,-101.5C479.47,-101.5 498.04,-101.5 516.34,-101.5"/>
</g>
<!-- 10.0.0.103:d6:9f:07:e1:85:0c -->
<g id="node40" class="node">
<title>10.0.0.103:d6:9f:07:e1:85:0c</title>
<polygon fill="none" stroke="#8b0a50" points="657.49,-160 516.49,-160 516.49,-124 657.49,-124 657.49,-160"/>
<text text-anchor="middle" x="586.99" y="-138.3" font-family="Times,serif" font-size="14.00">d6:9f:07:e1:85:0c</text>
</g>
<!-- 10.0.0.103:22001&#45;&#45;10.0.0.103:d6:9f:07:e1:85:0c -->
<g id="edge46" class="edge">
<title>10.0.0.103:22001&#45;&#45;10.0.0.103:d6:9f:07:e1:85:0c</title>
<path fill="none" stroke="#8b0a50" d="M465.11,-128.5C479.47,-128.5 498.04,-128.5 516.34,-128.5"/>
</g>
<!-- 10.0.0.103:22002 -->
<g id="node35" class="node">
<title>10.0.0.103:22002</title>
<ellipse fill="none" stroke="indigo" cx="439" cy="-277" rx="38.99" ry="18"/>
<text text-anchor="middle" x="439" y="-273.3" font-family="Times,serif" font-size="14.00">vlan 3</text>
</g>
<!-- 10.0.0.103:10.0.0.103:22002&#45;&#45;10.0.0.103:22002 -->
<g id="edge40" class="edge">
<title>10.0.0.103:10.0.0.103:22002&#45;&#45;10.0.0.103:22002</title>
<path fill="none" stroke="indigo" d="M364.01,-290.5C380.79,-290.5 398.91,-290.5 413.13,-290.5"/>
</g>
<!-- 10.0.0.103:06:64:9a:54:07:b8 -->
<g id="node41" class="node">
<title>10.0.0.103:06:64:9a:54:07:b8</title>
<polygon fill="none" stroke="indigo" points="659.99,-214 513.99,-214 513.99,-178 659.99,-178 659.99,-214"/>
<text text-anchor="middle" x="586.99" y="-192.3" font-family="Times,serif" font-size="14.00">06:64:9a:54:07:b8</text>
</g>
<!-- 10.0.0.103:22002&#45;&#45;10.0.0.103:06:64:9a:54:07:b8 -->
<g id="edge47" class="edge">
<title>10.0.0.103:22002&#45;&#45;10.0.0.103:06:64:9a:54:07:b8</title>
<path fill="none" stroke="indigo" d="M426.99,-259.7C426.99,-238.97 426.99,-207 426.99,-207 426.99,-207 471.49,-207 513.55,-207"/>
</g>
<!-- 10.0.0.103:ce:76:23:9f:35:94 -->
<g id="node42" class="node">
<title>10.0.0.103:ce:76:23:9f:35:94</title>
<polygon fill="none" stroke="indigo" points="657.49,-268 516.49,-268 516.49,-232 657.49,-232 657.49,-268"/>
<text text-anchor="middle" x="586.99" y="-246.3" font-family="Times,serif" font-size="14.00">ce:76:23:9f:35:94</text>
</g>
<!-- 10.0.0.103:22002&#45;&#45;10.0.0.103:ce:76:23:9f:35:94 -->
<g id="edge48" class="edge">
<title>10.0.0.103:22002&#45;&#45;10.0.0.103:ce:76:23:9f:35:94</title>
<path fill="none" stroke="indigo" d="M465.11,-263.5C479.47,-263.5 498.04,-263.5 516.34,-263.5"/>
</g>
<!-- 10.0.0.103:fe:57:c2:af:b0:86 -->
<g id="node43" class="node">
<title>10.0.0.103:fe:57:c2:af:b0:86</title>
<polygon fill="none" stroke="indigo" points="655.49,-322 518.49,-322 518.49,-286 655.49,-286 655.49,-322"/>
<text text-anchor="middle" x="586.99" y="-300.3" font-family="Times,serif" font-size="14.00">fe:57:c2:af:b0:86</text>
</g>
<!-- 10.0.0.103:22002&#45;&#45;10.0.0.103:fe:57:c2:af:b0:86 -->
<g id="edge49" class="edge">
<title>10.0.0.103:22002&#45;&#45;10.0.0.103:fe:57:c2:af:b0:86</title>
<path fill="none" stroke="indigo" d="M465.11,-290.5C479.97,-290.5 499.33,-290.5 518.24,-290.5"/>
</g>
<!-- 10.0.0.103:22003 -->
<g id="node37" class="node">
<title>10.0.0.103:22003</title>
<ellipse fill="none" stroke="darkgreen" cx="439" cy="-358" rx="38.99" ry="18"/>
<text text-anchor="middle" x="439" y="-354.3" font-family="Times,serif" font-size="14.00">vlan 4</text>
</g>
<!-- 10.0.0.103:10.0.0.103:22003&#45;&#45;10.0.0.103:22003 -->
<g id="edge43" class="edge">
<title>10.0.0.103:10.0.0.103:22003&#45;&#45;10.0.0.103:22003</title>
<path fill="none" stroke="darkgreen" d="M364.01,-358C375.92,-358 388.51,-358 399.89,-358"/>
</g>
<!-- 10.0.0.103:6e:6b:5b:b9:d4:aa -->
<g id="node44" class="node">
<title>10.0.0.103:6e:6b:5b:b9:d4:aa</title>
<polygon fill="none" stroke="darkgreen" points="659.49,-376 514.49,-376 514.49,-340 659.49,-340 659.49,-376"/>
<text text-anchor="middle" x="586.99" y="-354.3" font-family="Times,serif" font-size="14.00">6e:6b:5b:b9:d4:aa</text>
</g>
<!-- 10.0.0.103:22003&#45;&#45;10.0.0.103:6e:6b:5b:b9:d4:aa -->
<g id="edge50" class="edge">
<title>10.0.0.103:22003&#45;&#45;10.0.0.103:6e:6b:5b:b9:d4:aa</title>
<path fill="none" stroke="darkgreen" d="M478.27,-358C489.4,-358 501.89,-358 514.33,-358"/>
</g>
</g>
</svg>
