<?xml version="1.0" encoding="UTF-8" standalone="no"?>
<!DOCTYPE svg PUBLIC "-//W3C//DTD SVG 1.1//EN"
 "http://www.w3.org/Graphics/SVG/1.1/DTD/svg11.dtd">
<!-- Generated by graphviz version 2.43.0 (0)
 -->
<!-- Title: G Pages: 1 -->
<svg width="384pt" height="1070pt"
 viewBox="0.00 0.00 384.00 1070.00" xmlns="http://www.w3.org/2000/svg" xmlns:xlink="http://www.w3.org/1999/xlink">
<g id="graph0" class="graph" transform="scale(1 1) rotate(0) translate(4 1066)">
<title>G</title>
<polygon fill="white" stroke="transparent" points="-4,4 -4,-1066 380,-1066 380,4 -4,4"/>
<!-- vtep:22001 -->
<g id="node1" class="node">
<title>vtep:22001</title>
<polygon fill="none" stroke="#8b0a50" points="98,-252 0,-252 0,-216 98,-216 98,-252"/>
<text text-anchor="middle" x="49" y="-230.3" font-family="Times,serif" font-size="14.00">vtep 22001</text>
</g>
<!-- vlan:2:22001 -->
<g id="node2" class="node">
<title>vlan:2:22001</title>
<polygon fill="#8b0a50" stroke="#8b0a50" points="194,-252 134,-252 134,-216 194,-216 194,-252"/>
<text text-anchor="middle" x="164" y="-230.3" font-family="Times,serif" font-size="14.00" fill="white">vlan 2</text>
</g>
<!-- vtep:22001&#45;&#45;vlan:2:22001 -->
<g id="edge1" class="edge">
<title>vtep:22001&#45;&#45;vlan:2:22001</title>
<path fill="none" stroke="#8b0a50" d="M98.1,-234C110.19,-234 122.78,-234 133.69,-234"/>
</g>
<!-- 12:46:e3:c9:08:6b -->
<g id="node9" class="node">
<title>12:46:e3:c9:08:6b</title>
<polygon fill="none" stroke="#8b0a50" points="375.5,-468 230.5,-468 230.5,-432 375.5,-432 375.5,-468"/>
<text text-anchor="middle" x="303" y="-446.3" font-family="Times,serif" font-size="14.00">12:46:e3:c9:08:6b</text>
</g>
<!-- vlan:2:22001&#45;&#45;12:46:e3:c9:08:6b -->
<g id="edge5" class="edge">
<title>vlan:2:22001&#45;&#45;12:46:e3:c9:08:6b</title>
<path fill="none" stroke="#8b0a50" d="M143,-252.04C143,-303.96 143,-450 143,-450 143,-450 188.16,-450 230.49,-450"/>
</g>
<!-- 92:94:53:a2:04:de -->
<g id="node10" class="node">
<title>92:94:53:a2:04:de</title>
<polygon fill="none" stroke="#8b0a50" points="376,-414 230,-414 230,-378 376,-378 376,-414"/>
<text text-anchor="middle" x="303" y="-392.3" font-family="Times,serif" font-size="14.00">92:94:53:a2:04:de</text>
</g>
<!-- vlan:2:22001&#45;&#45;92:94:53:a2:04:de -->
<g id="edge6" class="edge">
<title>vlan:2:22001&#45;&#45;92:94:53:a2:04:de</title>
<path fill="none" stroke="#8b0a50" d="M152,-252.27C152,-294.64 152,-396 152,-396 152,-396 191.24,-396 229.71,-396"/>
</g>
<!-- fa:cd:dc:5d:70:0d -->
<g id="node11" class="node">
<title>fa:cd:dc:5d:70:0d</title>
<polygon fill="none" stroke="#8b0a50" points="373,-360 233,-360 233,-324 373,-324 373,-360"/>
<text text-anchor="middle" x="303" y="-338.3" font-family="Times,serif" font-size="14.00">fa:cd:dc:5d:70:0d</text>
</g>
<!-- vlan:2:22001&#45;&#45;fa:cd:dc:5d:70:0d -->
<g id="edge7" class="edge">
<title>vlan:2:22001&#45;&#45;fa:cd:dc:5d:70:0d</title>
<path fill="none" stroke="#8b0a50" d="M169,-252.32C169,-283.13 169,-342 169,-342 169,-342 200.44,-342 232.86,-342"/>
</g>
<!-- 3e:f6:2f:93:f4:e0 -->
<g id="node18" class="node">
<title>3e:f6:2f:93:f4:e0</title>
<polygon fill="none" stroke="#8b0a50" points="370,-306 236,-306 236,-270 370,-270 370,-306"/>
<text text-anchor="middle" x="303" y="-284.3" font-family="Times,serif" font-size="14.00">3e:f6:2f:93:f4:e0</text>
</g>
<!-- vlan:2:22001&#45;&#45;3e:f6:2f:93:f4:e0 -->
<g id="edge15" class="edge">
<title>vlan:2:22001&#45;&#45;3e:f6:2f:93:f4:e0</title>
<path fill="none" stroke="#8b0a50" d="M186,-252.28C186,-267.95 186,-288 186,-288 186,-288 209.82,-288 235.96,-288"/>
</g>
<!-- b6:93:57:80:2d:ae -->
<g id="node19" class="node">
<title>b6:93:57:80:2d:ae</title>
<polygon fill="none" stroke="#8b0a50" points="376,-252 230,-252 230,-216 376,-216 376,-252"/>
<text text-anchor="middle" x="303" y="-230.3" font-family="Times,serif" font-size="14.00">b6:93:57:80:2d:ae</text>
</g>
<!-- vlan:2:22001&#45;&#45;b6:93:57:80:2d:ae -->
<g id="edge16" class="edge">
<title>vlan:2:22001&#45;&#45;b6:93:57:80:2d:ae</title>
<path fill="none" stroke="#8b0a50" d="M194.16,-234C204.78,-234 217.23,-234 229.83,-234"/>
</g>
<!-- e2:db:57:33:ac:3a -->
<g id="node20" class="node">
<title>e2:db:57:33:ac:3a</title>
<polygon fill="none" stroke="#8b0a50" points="374.5,-198 231.5,-198 231.5,-162 374.5,-162 374.5,-198"/>
<text text-anchor="middle" x="303" y="-176.3" font-family="Times,serif" font-size="14.00">e2:db:57:33:ac:3a</text>
</g>
<!-- vlan:2:22001&#45;&#45;e2:db:57:33:ac:3a -->
<g id="edge17" class="edge">
<title>vlan:2:22001&#45;&#45;e2:db:57:33:ac:3a</title>
<path fill="none" stroke="#8b0a50" d="M182,-215.72C182,-200.05 182,-180 182,-180 182,-180 205.16,-180 231.22,-180"/>
</g>
<!-- 8e:be:15:11:bd:9f -->
<g id="node24" class="node">
<title>8e:be:15:11:bd:9f</title>
<polygon fill="none" stroke="#8b0a50" points="374,-144 232,-144 232,-108 374,-108 374,-144"/>
<text text-anchor="middle" x="303" y="-122.3" font-family="Times,serif" font-size="14.00">8e:be:15:11:bd:9f</text>
</g>
<!-- vlan:2:22001&#45;&#45;8e:be:15:11:bd:9f -->
<g id="edge24" class="edge">
<title>vlan:2:22001&#45;&#45;8e:be:15:11:bd:9f</title>
<path fill="none" stroke="#8b0a50" d="M170,-215.68C170,-184.87 170,-126 170,-126 170,-126 200.21,-126 231.83,-126"/>
</g>
<!-- 96:9a:f8:11:8c:41 -->
<g id="node25" class="node">
<title>96:9a:f8:11:8c:41</title>
<polygon fill="none" stroke="#8b0a50" points="373.5,-90 232.5,-90 232.5,-54 373.5,-54 373.5,-90"/>
<text text-anchor="middle" x="303" y="-68.3" font-family="Times,serif" font-size="14.00">96:9a:f8:11:8c:41</text>
</g>
<!-- vlan:2:22001&#45;&#45;96:9a:f8:11:8c:41 -->
<g id="edge25" class="edge">
<title>vlan:2:22001&#45;&#45;96:9a:f8:11:8c:41</title>
<path fill="none" stroke="#8b0a50" d="M158,-215.73C158,-173.36 158,-72 158,-72 158,-72 195.39,-72 232.2,-72"/>
</g>
<!-- d6:9f:07:e1:85:0c -->
<g id="node26" class="node">
<title>d6:9f:07:e1:85:0c</title>
<polygon fill="none" stroke="#8b0a50" points="373.5,-36 232.5,-36 232.5,0 373.5,0 373.5,-36"/>
<text text-anchor="middle" x="303" y="-14.3" font-family="Times,serif" font-size="14.00">d6:9f:07:e1:85:0c</text>
</g>
<!-- vlan:2:22001&#45;&#45;d6:9f:07:e1:85:0c -->
<g id="edge26" class="edge">
<title>vlan:2:22001&#45;&#45;d6:9f:07:e1:85:0c</title>
<path fill="none" stroke="#8b0a50" d="M146,-215.96C146,-164.04 146,-18 146,-18 146,-18 190.64,-18 232.31,-18"/>
</g>
<!-- vtep:22002 -->
<g id="node3" class="node">
<title>vtep:22002</title>
<polygon fill="none" stroke="indigo" points="98,-684 0,-684 0,-648 98,-648 98,-684"/>
<text text-anchor="middle" x="49" y="-662.3" font-family="Times,serif" font-size="14.00">vtep 22002</text>
</g>
<!-- vlan:4:22002 -->
<g id="node4" class="node">
<title>vlan:4:22002</title>
<polygon fill="indigo" stroke="indigo" points="194,-738 134,-738 134,-702 194,-702 194,-738"/>
<text text-anchor="middle" x="164" y="-716.3" font-family="Times,serif" font-size="14.00" fill="white">vlan 4</text>
</g>
<!-- vtep:22002&#45;&#45;vlan:4:22002 -->
<g id="edge2" class="edge">
<title>vtep:22002&#45;&#45;vlan:4:22002</title>
<path fill="none" stroke="indigo" d="M98.1,-675C129.36,-675 164,-675 164,-675 164,-675 164,-689.44 164,-701.96"/>
</g>
<!-- vlan:3:22002 -->
<g id="node16" class="node">
<title>vlan:3:22002</title>
<polygon fill="indigo" stroke="indigo" points="194,-630 134,-630 134,-594 194,-594 194,-630"/>
<text text-anchor="middle" x="164" y="-608.3" font-family="Times,serif" font-size="14.00" fill="white">vlan 3</text>
</g>
<!-- vtep:22002&#45;&#45;vlan:3:22002 -->
<g id="edge13" class="edge">
<title>vtep:22002&#45;&#45;vlan:3:22002</title>
<path fill="none" stroke="indigo" d="M98.12,-666C123.41,-666 149,-666 149,-666 149,-666 149,-645.95 149,-630.28"/>
</g>
<!-- 26:a5:df:14:3a:23 -->
<g id="node12" class="node">
<title>26:a5:df:14:3a:23</title>
<polygon fill="none" stroke="indigo" points="374,-792 232,-792 232,-756 374,-756 374,-792"/>
<text text-anchor="middle" x="303" y="-770.3" font-family="Times,serif" font-size="14.00">26:a5:df:14:3a:23</text>
</g>
<!-- vlan:4:22002&#45;&#45;26:a5:df:14:3a:23 -->
<g id="edge8" class="edge">
<title>vlan:4:22002&#45;&#45;26:a5:df:14:3a:23</title>
<path fill="none" stroke="indigo" d="M174,-738.28C174,-753.95 174,-774 174,-774 174,-774 201.87,-774 231.71,-774"/>
</g>
<!-- fa:af:17:da:9a:67 -->
<g id="node13" class="node">
<title>fa:af:17:da:9a:67</title>
<polygon fill="none" stroke="indigo" points="371.5,-738 234.5,-738 234.5,-702 371.5,-702 371.5,-738"/>
<text text-anchor="middle" x="303" y="-716.3" font-family="Times,serif" font-size="14.00">fa:af:17:da:9a:67</text>
</g>
<!-- vlan:4:22002&#45;&#45;fa:af:17:da:9a:67 -->
<g id="edge9" class="edge">
<title>vlan:4:22002&#45;&#45;fa:af:17:da:9a:67</title>
<path fill="none" stroke="indigo" d="M194.16,-720C206.06,-720 220.25,-720 234.39,-720"/>
</g>
<!-- vtep:22003 -->
<g id="node5" class="node">
<title>vtep:22003</title>
<polygon fill="none" stroke="darkgreen" points="98,-927 0,-927 0,-891 98,-891 98,-927"/>
<text text-anchor="middle" x="49" y="-905.3" font-family="Times,serif" font-size="14.00">vtep 22003</text>
</g>
<!-- vlan:5:22003 -->
<g id="node6" class="node">
<title>vlan:5:22003</title>
<polygon fill="darkgreen" stroke="darkgreen" points="194,-981 134,-981 134,-945 194,-945 194,-981"/>
<text text-anchor="middle" x="164" y="-959.3" font-family="Times,serif" font-size="14.00" fill="white">vlan 5</text>
</g>
<!-- vtep:22003&#45;&#45;vlan:5:22003 -->
<g id="edge3" class="edge">
<title>vtep:22003&#45;&#45;vlan:5:22003</title>
<path fill="none" stroke="darkgreen" d="M98.12,-924C125.45,-924 154,-924 154,-924 154,-924 154,-934.69 154,-944.87"/>
</g>
<!-- vlan:4:22003 -->
<g id="node17" class="node">
<title>vlan:4:22003</title>
<polygon fill="darkgreen" stroke="darkgreen" points="194,-913 134,-913 134,-877 194,-877 194,-913"/>
<text text-anchor="middle" x="164" y="-891.3" font-family="Times,serif" font-size="14.00" fill="white">vlan 4</text>
</g>
<!-- vtep:22003&#45;&#45;vlan:4:22003 -->
<g id="edge14" class="edge">
<title>vtep:22003&#45;&#45;vlan:4:22003</title>
<path fill="none" stroke="darkgreen" d="M98.1,-902C110.19,-902 122.78,-902 133.69,-902"/>
</g>
<!-- b2:b2:fd:c0:4f:f5 -->
<g id="node14" class="node">
<title>b2:b2:fd:c0:4f:f5</title>
<polygon fill="none" stroke="darkgreen" points="370,-1008 236,-1008 236,-972 370,-972 370,-1008"/>
<text text-anchor="middle" x="303" y="-986.3" font-family="Times,serif" font-size="14.00">b2:b2:fd:c0:4f:f5</text>
</g>
<!-- vlan:5:22003&#45;&#45;b2:b2:fd:c0:4f:f5 -->
<g id="edge10" class="edge">
<title>vlan:5:22003&#45;&#45;b2:b2:fd:c0:4f:f5</title>
<path fill="none" stroke="darkgreen" d="M194.16,-976.5C206.46,-976.5 221.2,-976.5 235.81,-976.5"/>
</g>
<!-- vtep:22004 -->
<g id="node7" class="node">
<title>vtep:22004</title>
<polygon fill="none" stroke="crimson" points="98,-1062 0,-1062 0,-1026 98,-1026 98,-1062"/>
<text text-anchor="middle" x="49" y="-1040.3" font-family="Times,serif" font-size="14.00">vtep 22004</text>
</g>
<!-- vlan:3:22004 -->
<g id="node8" class="node">
<title>vlan:3:22004</title>
<polygon fill="crimson" stroke="crimson" points="194,-1062 134,-1062 134,-1026 194,-1026 194,-1062"/>
<text text-anchor="middle" x="164" y="-1040.3" font-family="Times,serif" font-size="14.00" fill="white">vlan 3</text>
</g>
<!-- vtep:22004&#45;&#45;vlan:3:22004 -->
<g id="edge4" class="edge">
<title>vtep:22004&#45;&#45;vlan:3:22004</title>
<path fill="none" stroke="crimson" d="M98.1,-1044C110.19,-1044 122.78,-1044 133.69,-1044"/>
</g>
<!-- ca:8c:66:d1:96:9f -->
<g id="node15" class="node">
<title>ca:8c:66:d1:96:9f</title>
<polygon fill="none" stroke="crimson" points="373,-1062 233,-1062 233,-1026 373,-1026 373,-1062"/>
<text text-anchor="middle" x="303" y="-1040.3" font-family="Times,serif" font-size="14.00">ca:8c:66:d1:96:9f</text>
</g>
<!-- vlan:3:22004&#45;&#45;ca:8c:66:d1:96:9f -->
<g id="edge11" class="edge">
<title>vlan:3:22004&#45;&#45;ca:8c:66:d1:96:9f</title>
<path fill="none" stroke="crimson" d="M194.16,-1044C205.66,-1044 219.3,-1044 232.97,-1044"/>
</g>
<!-- 96:c2:70:bb:ad:77 -->
<g id="node21" class="node">
<title>96:c2:70:bb:ad:77</title>
<polygon fill="none" stroke="indigo" points="375.5,-684 230.5,-684 230.5,-648 375.5,-648 375.5,-684"/>
<text text-anchor="middle" x="303" y="-662.3" font-family="Times,serif" font-size="14.00">96:c2:70:bb:ad:77</text>
</g>
<!-- vlan:3:22002&#45;&#45;96:c2:70:bb:ad:77 -->
<g id="edge18" class="edge">
<title>vlan:3:22002&#45;&#45;96:c2:70:bb:ad:77</title>
<path fill="none" stroke="indigo" d="M179,-630.04C179,-642.56 179,-657 179,-657 179,-657 203.16,-657 230.15,-657"/>
</g>
<!-- 06:64:9a:54:07:b8 -->
<g id="node27" class="node">
<title>06:64:9a:54:07:b8</title>
<polygon fill="none" stroke="indigo" points="376,-630 230,-630 230,-594 376,-594 376,-630"/>
<text text-anchor="middle" x="303" y="-608.3" font-family="Times,serif" font-size="14.00">06:64:9a:54:07:b8</text>
</g>
<!-- vlan:3:22002&#45;&#45;06:64:9a:54:07:b8 -->
<g id="edge27" class="edge">
<title>vlan:3:22002&#45;&#45;06:64:9a:54:07:b8</title>
<path fill="none" stroke="indigo" d="M194.16,-612C204.78,-612 217.23,-612 229.83,-612"/>
</g>
<!-- ce:76:23:9f:35:94 -->
<g id="node28" class="node">
<title>ce:76:23:9f:35:94</title>
<polygon fill="none" stroke="indigo" points="373.5,-576 232.5,-576 232.5,-540 373.5,-540 373.5,-576"/>
<text text-anchor="middle" x="303" y="-554.3" font-family="Times,serif" font-size="14.00">ce:76:23:9f:35:94</text>
</g>
<!-- vlan:3:22002&#45;&#45;ce:76:23:9f:35:94 -->
<g id="edge28" class="edge">
<title>vlan:3:22002&#45;&#45;ce:76:23:9f:35:94</title>
<path fill="none" stroke="indigo" d="M177,-593.72C177,-578.05 177,-558 177,-558 177,-558 203.54,-558 232.27,-558"/>
</g>
<!-- fe:57:c2:af:b0:86 -->
<g id="node29" class="node">
<title>fe:57:c2:af:b0:86</title>
<polygon fill="none" stroke="indigo" points="371.5,-522 234.5,-522 234.5,-486 371.5,-486 371.5,-522"/>
<text text-anchor="middle" x="303" y="-500.3" font-family="Times,serif" font-size="14.00">fe:57:c2:af:b0:86</text>
</g>
<!-- vlan:3:22002&#45;&#45;fe:57:c2:af:b0:86 -->
<g id="edge29" class="edge">
<title>vlan:3:22002&#45;&#45;fe:57:c2:af:b0:86</title>
<path fill="none" stroke="indigo" d="M160,-593.68C160,-562.87 160,-504 160,-504 160,-504 197.73,-504 234.43,-504"/>
</g>
<!-- 06:49:05:b9:23:e3 -->
<g id="node22" class="node">
<title>06:49:05:b9:23:e3</title>
<polygon fill="none" stroke="darkgreen" points="376,-954 230,-954 230,-918 376,-918 376,-954"/>
<text text-anchor="middle" x="303" y="-932.3" font-family="Times,serif" font-size="14.00">06:49:05:b9:23:e3</text>
</g>
<!-- vlan:4:22003&#45;&#45;06:49:05:b9:23:e3 -->
<g id="edge19" class="edge">
<title>vlan:4:22003&#45;&#45;06:49:05:b9:23:e3</title>
<path fill="none" stroke="darkgreen" d="M174,-913.06C174,-917.49 174,-921 174,-921 174,-921 200.72,-921 229.83,-921"/>
</g>
<!-- 12:4a:ae:dc:aa:f2 -->
<g id="node23" class="node">
<title>12:4a:ae:dc:aa:f2</title>
<polygon fill="none" stroke="darkgreen" points="372,-900 234,-900 234,-864 372,-864 372,-900"/>
<text text-anchor="middle" x="303" y="-878.3" font-family="Times,serif" font-size="14.00">12:4a:ae:dc:aa:f2</text>
</g>
<!-- vlan:4:22003&#45;&#45;12:4a:ae:dc:aa:f2 -->
<g id="edge20" class="edge">
<title>vlan:4:22003&#45;&#45;12:4a:ae:dc:aa:f2</title>
<path fill="none" stroke="darkgreen" d="M194.16,-888.5C205.9,-888.5 219.87,-888.5 233.82,-888.5"/>
</g>
<!-- 6e:6b:5b:b9:d4:aa -->
<g id="node30" class="node">
<title>6e:6b:5b:b9:d4:aa</title>
<polygon fill="none" stroke="darkgreen" points="375.5,-846 230.5,-846 230.5,-810 375.5,-810 375.5,-846"/>
<text text-anchor="middle" x="303" y="-824.3" font-family="Times,serif" font-size="14.00">6e:6b:5b:b9:d4:aa</text>
</g>
<!-- vlan:4:22003&#45;&#45;6e:6b:5b:b9:d4:aa -->
<g id="edge30" class="edge">
<title>vlan:4:22003&#45;&#45;6e:6b:5b:b9:d4:aa</title>
<path fill="none" stroke="darkgreen" d="M154,-876.69C154,-856.85 154,-828 154,-828 154,-828 192.42,-828 230.25,-828"/>
</g>
</g>
</svg>
