<?xml version="1.0" encoding="UTF-8" standalone="no"?>
<!DOCTYPE svg PUBLIC "-//W3C//DTD SVG 1.1//EN"
 "http://www.w3.org/Graphics/SVG/1.1/DTD/svg11.dtd">
<!-- Generated by graphviz version 2.43.0 (0)
 -->
<!-- Title: G Pages: 1 -->
<svg width="828pt" height="780pt"
 viewBox="0.00 0.00 828.10 779.63" xmlns="http://www.w3.org/2000/svg" xmlns:xlink="http://www.w3.org/1999/xlink">
<g id="graph0" class="graph" transform="scale(1 1) rotate(0) translate(4 775.63)">
<title>G</title>
<polygon fill="white" stroke="transparent" points="-4,4 -4,-775.63 824.1,-775.63 824.1,4 -4,4"/>
<!-- vtep:22001 -->
<g id="node1" class="node">
<title>vtep:22001</title>
<polygon fill="#8b0a50" stroke="#8b0a50" points="346.37,-264.8 253.37,-264.8 253.37,-228.8 346.37,-228.8 346.37,-264.8"/>
<text text-anchor="middle" x="299.87" y="-243.1" font-family="Times,serif" font-size="14.00" fill="white">VNI 22001</text>
</g>
<!-- 12:46:e3:c9:08:6b -->
<g id="node5" class="node">
<title>12:46:e3:c9:08:6b</title>
<polygon fill="none" stroke="#8b0a50" points="578.4,-364.75 433.4,-364.75 433.4,-328.75 578.4,-328.75 578.4,-364.75"/>
<text text-anchor="middle" x="505.9" y="-343.05" font-family="Times,serif" font-size="14.00">12:46:e3:c9:08:6b</text>
</g>
<!-- vtep:22001&#45;&#45;12:46:e3:c9:08:6b -->
<g id="edge1" class="edge">
<title>vtep:22001&#45;&#45;12:46:e3:c9:08:6b</title>
<path fill="none" stroke="#8b0a50" d="M337.18,-264.9C374.41,-282.96 431.27,-310.55 468.52,-328.62"/>
</g>
<!-- 92:94:53:a2:04:de -->
<g id="node6" class="node">
<title>92:94:53:a2:04:de</title>
<polygon fill="none" stroke="#8b0a50" points="354.95,-36 208.95,-36 208.95,0 354.95,0 354.95,-36"/>
<text text-anchor="middle" x="281.95" y="-14.3" font-family="Times,serif" font-size="14.00">92:94:53:a2:04:de</text>
</g>
<!-- vtep:22001&#45;&#45;92:94:53:a2:04:de -->
<g id="edge2" class="edge">
<title>vtep:22001&#45;&#45;92:94:53:a2:04:de</title>
<path fill="none" stroke="#8b0a50" d="M298.44,-228.46C295.07,-185.52 286.72,-78.83 283.37,-36.11"/>
</g>
<!-- fa:cd:dc:5d:70:0d -->
<g id="node7" class="node">
<title>fa:cd:dc:5d:70:0d</title>
<polygon fill="none" stroke="#8b0a50" points="180.26,-395.19 40.26,-395.19 40.26,-359.19 180.26,-359.19 180.26,-395.19"/>
<text text-anchor="middle" x="110.26" y="-373.49" font-family="Times,serif" font-size="14.00">fa:cd:dc:5d:70:0d</text>
</g>
<!-- vtep:22001&#45;&#45;fa:cd:dc:5d:70:0d -->
<g id="edge3" class="edge">
<title>vtep:22001&#45;&#45;fa:cd:dc:5d:70:0d</title>
<path fill="none" stroke="#8b0a50" d="M273.51,-264.93C237.38,-289.77 172.87,-334.14 136.7,-359.01"/>
</g>
<!-- 3e:f6:2f:93:f4:e0 -->
<g id="node12" class="node">
<title>3e:f6:2f:93:f4:e0</title>
<polygon fill="none" stroke="#8b0a50" points="460.56,-474.94 326.56,-474.94 326.56,-438.94 460.56,-438.94 460.56,-474.94"/>
<text text-anchor="middle" x="393.56" y="-453.24" font-family="Times,serif" font-size="14.00">3e:f6:2f:93:f4:e0</text>
</g>
<!-- vtep:22001&#45;&#45;3e:f6:2f:93:f4:e0 -->
<g id="edge8" class="edge">
<title>vtep:22001&#45;&#45;3e:f6:2f:93:f4:e0</title>
<path fill="none" stroke="#8b0a50" d="M308.02,-265.08C325.78,-304.92 367.81,-399.19 385.49,-438.85"/>
</g>
<!-- b6:93:57:80:2d:ae -->
<g id="node13" class="node">
<title>b6:93:57:80:2d:ae</title>
<polygon fill="none" stroke="#8b0a50" points="310.88,-483.99 164.88,-483.99 164.88,-447.99 310.88,-447.99 310.88,-483.99"/>
<text text-anchor="middle" x="237.88" y="-462.29" font-family="Times,serif" font-size="14.00">b6:93:57:80:2d:ae</text>
</g>
<!-- vtep:22001&#45;&#45;b6:93:57:80:2d:ae -->
<g id="edge9" class="edge">
<title>vtep:22001&#45;&#45;b6:93:57:80:2d:ae</title>
<path fill="none" stroke="#8b0a50" d="M294.69,-265.11C283,-306.47 254.65,-406.72 243,-447.89"/>
</g>
<!-- e2:db:57:33:ac:3a -->
<g id="node14" class="node">
<title>e2:db:57:33:ac:3a</title>
<polygon fill="none" stroke="#8b0a50" points="143,-242.29 0,-242.29 0,-206.29 143,-206.29 143,-242.29"/>
<text text-anchor="middle" x="71.5" y="-220.59" font-family="Times,serif" font-size="14.00">e2:db:57:33:ac:3a</text>
</g>
<!-- vtep:22001&#45;&#45;e2:db:57:33:ac:3a -->
<g id="edge10" class="edge">
<title>vtep:22001&#45;&#45;e2:db:57:33:ac:3a</title>
<path fill="none" stroke="#8b0a50" d="M253.11,-242.19C221.53,-239.08 179.23,-234.91 143.4,-231.38"/>
</g>
<!-- 8e:be:15:11:bd:9f -->
<g id="node18" class="node">
<title>8e:be:15:11:bd:9f</title>
<polygon fill="none" stroke="#8b0a50" points="593.04,-208.63 451.04,-208.63 451.04,-172.63 593.04,-172.63 593.04,-208.63"/>
<text text-anchor="middle" x="522.04" y="-186.93" font-family="Times,serif" font-size="14.00">8e:be:15:11:bd:9f</text>
</g>
<!-- vtep:22001&#45;&#45;8e:be:15:11:bd:9f -->
<g id="edge14" class="edge">
<title>vtep:22001&#45;&#45;8e:be:15:11:bd:9f</title>
<path fill="none" stroke="#8b0a50" d="M346.45,-235.03C376.73,-227.37 416.8,-217.24 451.02,-208.59"/>
</g>
<!-- 96:9a:f8:11:8c:41 -->
<g id="node19" class="node">
<title>96:9a:f8:11:8c:41</title>
<polygon fill="none" stroke="#8b0a50" points="210.32,-101.71 69.32,-101.71 69.32,-65.71 210.32,-65.71 210.32,-101.71"/>
<text text-anchor="middle" x="139.82" y="-80.01" font-family="Times,serif" font-size="14.00">96:9a:f8:11:8c:41</text>
</g>
<!-- vtep:22001&#45;&#45;96:9a:f8:11:8c:41 -->
<g id="edge15" class="edge">
<title>vtep:22001&#45;&#45;96:9a:f8:11:8c:41</title>
<path fill="none" stroke="#8b0a50" d="M282.13,-228.72C251.37,-197.37 188.46,-133.27 157.64,-101.87"/>
</g>
<!-- d6:9f:07:e1:85:0c -->
<g id="node20" class="node">
<title>d6:9f:07:e1:85:0c</title>
<polygon fill="none" stroke="#8b0a50" points="503.97,-78.88 362.97,-78.88 362.97,-42.88 503.97,-42.88 503.97,-78.88"/>
<text text-anchor="middle" x="433.47" y="-57.18" font-family="Times,serif" font-size="14.00">d6:9f:07:e1:85:0c</text>
</g>
<!-- vtep:22001&#45;&#45;d6:9f:07:e1:85:0c -->
<g id="edge16" class="edge">
<title>vtep:22001&#45;&#45;d6:9f:07:e1:85:0c</title>
<path fill="none" stroke="#8b0a50" d="M312.93,-228.64C338.47,-193.09 394.78,-114.73 420.36,-79.12"/>
</g>
<!-- vtep:22002 -->
<g id="node2" class="node">
<title>vtep:22002</title>
<polygon fill="indigo" stroke="indigo" points="714.62,-496.53 621.62,-496.53 621.62,-460.53 714.62,-460.53 714.62,-496.53"/>
<text text-anchor="middle" x="668.12" y="-474.83" font-family="Times,serif" font-size="14.00" fill="white">VNI 22002</text>
</g>
<!-- 26:a5:df:14:3a:23 -->
<g id="node8" class="node">
<title>26:a5:df:14:3a:23</title>
<polygon fill="none" stroke="indigo" points="817.46,-450.99 675.46,-450.99 675.46,-414.99 817.46,-414.99 817.46,-450.99"/>
<text text-anchor="middle" x="746.46" y="-429.29" font-family="Times,serif" font-size="14.00">26:a5:df:14:3a:23</text>
</g>
<!-- vtep:22002&#45;&#45;26:a5:df:14:3a:23 -->
<g id="edge4" class="edge">
<title>vtep:22002&#45;&#45;26:a5:df:14:3a:23</title>
<path fill="none" stroke="indigo" d="M699.53,-460.27C704.73,-457.25 710.11,-454.13 715.29,-451.11"/>
</g>
<!-- fa:af:17:da:9a:67 -->
<g id="node9" class="node">
<title>fa:af:17:da:9a:67</title>
<polygon fill="none" stroke="indigo" points="736.44,-406 599.44,-406 599.44,-370 736.44,-370 736.44,-406"/>
<text text-anchor="middle" x="667.94" y="-384.3" font-family="Times,serif" font-size="14.00">fa:af:17:da:9a:67</text>
</g>
<!-- vtep:22002&#45;&#45;fa:af:17:da:9a:67 -->
<g id="edge5" class="edge">
<title>vtep:22002&#45;&#45;fa:af:17:da:9a:67</title>
<path fill="none" stroke="indigo" d="M668.09,-460.21C668.05,-444.51 668.01,-421.99 667.98,-406.29"/>
</g>
<!-- 96:c2:70:bb:ad:77 -->
<g id="node15" class="node">
<title>96:c2:70:bb:ad:77</title>
<polygon fill="none" stroke="indigo" points="663,-543.11 518,-543.11 518,-507.11 663,-507.11 663,-543.11"/>
<text text-anchor="middle" x="590.5" y="-521.41" font-family="Times,serif" font-size="14.00">96:c2:70:bb:ad:77</text>
</g>
<!-- vtep:22002&#45;&#45;96:c2:70:bb:ad:77 -->
<g id="edge11" class="edge">
<title>vtep:22002&#45;&#45;96:c2:70:bb:ad:77</title>
<path fill="none" stroke="indigo" d="M637.89,-496.67C632.19,-500.1 626.22,-503.68 620.52,-507.09"/>
</g>
<!-- 06:64:9a:54:07:b8 -->
<g id="node21" class="node">
<title>06:64:9a:54:07:b8</title>
<polygon fill="none" stroke="indigo" points="820.1,-541.01 674.1,-541.01 674.1,-505.01 820.1,-505.01 820.1,-541.01"/>
<text text-anchor="middle" x="747.1" y="-519.31" font-family="Times,serif" font-size="14.00">06:64:9a:54:07:b8</text>
</g>
<!-- vtep:22002&#45;&#45;06:64:9a:54:07:b8 -->
<g id="edge17" class="edge">
<title>vtep:22002&#45;&#45;06:64:9a:54:07:b8</title>
<path fill="none" stroke="indigo" d="M700.24,-496.62C705.11,-499.37 710.14,-502.19 715,-504.94"/>
</g>
<!-- ce:76:23:9f:35:94 -->
<g id="node22" class="node">
<title>ce:76:23:9f:35:94</title>
<polygon fill="none" stroke="indigo" points="740.2,-587.11 599.2,-587.11 599.2,-551.11 740.2,-551.11 740.2,-587.11"/>
<text text-anchor="middle" x="669.7" y="-565.41" font-family="Times,serif" font-size="14.00">ce:76:23:9f:35:94</text>
</g>
<!-- vtep:22002&#45;&#45;ce:76:23:9f:35:94 -->
<g id="edge18" class="edge">
<title>vtep:22002&#45;&#45;ce:76:23:9f:35:94</title>
<path fill="none" stroke="indigo" d="M668.44,-496.86C668.72,-512.58 669.11,-535.1 669.38,-550.81"/>
</g>
<!-- fe:57:c2:af:b0:86 -->
<g id="node23" class="node">
<title>fe:57:c2:af:b0:86</title>
<polygon fill="none" stroke="indigo" points="657.86,-451.97 520.86,-451.97 520.86,-415.97 657.86,-415.97 657.86,-451.97"/>
<text text-anchor="middle" x="589.36" y="-430.27" font-family="Times,serif" font-size="14.00">fe:57:c2:af:b0:86</text>
</g>
<!-- vtep:22002&#45;&#45;fe:57:c2:af:b0:86 -->
<g id="edge19" class="edge">
<title>vtep:22002&#45;&#45;fe:57:c2:af:b0:86</title>
<path fill="none" stroke="indigo" d="M636.09,-460.41C631.23,-457.66 626.22,-454.83 621.37,-452.08"/>
</g>
<!-- vtep:22003 -->
<g id="node3" class="node">
<title>vtep:22003</title>
<polygon fill="darkgreen" stroke="darkgreen" points="464.46,-681.55 371.46,-681.55 371.46,-645.55 464.46,-645.55 464.46,-681.55"/>
<text text-anchor="middle" x="417.96" y="-659.85" font-family="Times,serif" font-size="14.00" fill="white">VNI 22003</text>
</g>
<!-- b2:b2:fd:c0:4f:f5 -->
<g id="node10" class="node">
<title>b2:b2:fd:c0:4f:f5</title>
<polygon fill="none" stroke="darkgreen" points="575.55,-622.82 441.55,-622.82 441.55,-586.82 575.55,-586.82 575.55,-622.82"/>
<text text-anchor="middle" x="508.55" y="-601.12" font-family="Times,serif" font-size="14.00">b2:b2:fd:c0:4f:f5</text>
</g>
<!-- vtep:22003&#45;&#45;b2:b2:fd:c0:4f:f5 -->
<g id="edge6" class="edge">
<title>vtep:22003&#45;&#45;b2:b2:fd:c0:4f:f5</title>
<path fill="none" stroke="darkgreen" d="M446.12,-645.29C457.13,-638.15 469.73,-629.98 480.71,-622.86"/>
</g>
<!-- 06:49:05:b9:23:e3 -->
<g id="node16" class="node">
<title>06:49:05:b9:23:e3</title>
<polygon fill="none" stroke="darkgreen" points="432.32,-591 286.32,-591 286.32,-555 432.32,-555 432.32,-591"/>
<text text-anchor="middle" x="359.32" y="-569.3" font-family="Times,serif" font-size="14.00">06:49:05:b9:23:e3</text>
</g>
<!-- vtep:22003&#45;&#45;06:49:05:b9:23:e3 -->
<g id="edge12" class="edge">
<title>vtep:22003&#45;&#45;06:49:05:b9:23:e3</title>
<path fill="none" stroke="darkgreen" d="M406.09,-645.23C395.92,-629.52 381.34,-607 371.17,-591.3"/>
</g>
<!-- 12:4a:ae:dc:aa:f2 -->
<g id="node17" class="node">
<title>12:4a:ae:dc:aa:f2</title>
<polygon fill="none" stroke="darkgreen" points="397,-741.12 259,-741.12 259,-705.12 397,-705.12 397,-741.12"/>
<text text-anchor="middle" x="328" y="-719.42" font-family="Times,serif" font-size="14.00">12:4a:ae:dc:aa:f2</text>
</g>
<!-- vtep:22003&#45;&#45;12:4a:ae:dc:aa:f2 -->
<g id="edge13" class="edge">
<title>vtep:22003&#45;&#45;12:4a:ae:dc:aa:f2</title>
<path fill="none" stroke="darkgreen" d="M390.48,-681.75C379.32,-689.14 366.45,-697.66 355.31,-705.04"/>
</g>
<!-- 6e:6b:5b:b9:d4:aa -->
<g id="node24" class="node">
<title>6e:6b:5b:b9:d4:aa</title>
<polygon fill="none" stroke="darkgreen" points="550.01,-771.63 405.01,-771.63 405.01,-735.63 550.01,-735.63 550.01,-771.63"/>
<text text-anchor="middle" x="477.51" y="-749.93" font-family="Times,serif" font-size="14.00">6e:6b:5b:b9:d4:aa</text>
</g>
<!-- vtep:22003&#45;&#45;6e:6b:5b:b9:d4:aa -->
<g id="edge20" class="edge">
<title>vtep:22003&#45;&#45;6e:6b:5b:b9:d4:aa</title>
<path fill="none" stroke="darkgreen" d="M430.01,-681.78C440.34,-697.41 455.15,-719.81 465.48,-735.43"/>
</g>
<!-- vtep:22004 -->
<g id="node4" class="node">
<title>vtep:22004</title>
<polygon fill="crimson" stroke="crimson" points="648,-54.6 555,-54.6 555,-18.6 648,-18.6 648,-54.6"/>
<text text-anchor="middle" x="601.5" y="-32.9" font-family="Times,serif" font-size="14.00" fill="white">VNI 22004</text>
</g>
<!-- ca:8c:66:d1:96:9f -->
<g id="node11" class="node">
<title>ca:8c:66:d1:96:9f</title>
<polygon fill="none" stroke="crimson" points="796.01,-36 656.01,-36 656.01,0 796.01,0 796.01,-36"/>
<text text-anchor="middle" x="726.01" y="-14.3" font-family="Times,serif" font-size="14.00">ca:8c:66:d1:96:9f</text>
</g>
<!-- vtep:22004&#45;&#45;ca:8c:66:d1:96:9f -->
<g id="edge7" class="edge">
<title>vtep:22004&#45;&#45;ca:8c:66:d1:96:9f</title>
<path fill="none" stroke="crimson" d="M648.22,-29.62C650.7,-29.25 653.22,-28.88 655.76,-28.5"/>
</g>
</g>
</svg>
