<?xml version="1.0" encoding="UTF-8" standalone="no"?>
<!DOCTYPE svg PUBLIC "-//W3C//DTD SVG 1.1//EN"
 "http://www.w3.org/Graphics/SVG/1.1/DTD/svg11.dtd">
<!-- Generated by graphviz version 2.43.0 (0)
 -->
<!-- Title: G Pages: 1 -->
<svg width="385pt" height="1070pt"
 viewBox="0.00 0.00 385.00 1070.00" xmlns="http://www.w3.org/2000/svg" xmlns:xlink="http://www.w3.org/1999/xlink">
<g id="graph0" class="graph" transform="scale(1 1) rotate(0) translate(4 1066)">
<title>G</title>
<polygon fill="white" stroke="transparent" points="-4,4 -4,-1066 381,-1066 381,4 -4,4"/>
<!-- vtep:22001 -->
<g id="node1" class="node">
<title>vtep:22001</title>
<polygon fill="none" stroke="#8b0a50" points="98,-252 0,-252 0,-216 98,-216 98,-252"/>
<text text-anchor="middle" x="49" y="-230.3" font-family="Times,serif" font-size="14.00">vtep 22001</text>
</g>
<!-- vlan:2:22001 -->
<g id="node2" class="node">
<title>vlan:2:22001</title>
<polygon fill="#8b0a50" stroke="#8b0a50" points="194,-252 134,-252 134,-216 194,-216 194,-252"/>
<text text-anchor="middle" x="164" y="-230.3" font-family="Times,serif" font-size="14.00" fill="white">vlan 2</text>
</g>
<!-- vtep:22001&#45;&#45;vlan:2:22001 -->
<g id="edge1" class="edge">
<title>vtep:22001&#45;&#45;vlan:2:22001</title>
<path fill="none" stroke="#8b0a50" d="M98.1,-234C110.19,-234 122.78,-234 133.69,-234"/>
</g>
<!-- 02:20:20:01:01:01 -->
<g id="node9" class="node">
<title>02:20:20:01:01:01</title>
<polygon fill="none" stroke="#8b0a50" points="377,-468 230,-468 230,-432 377,-432 377,-468"/>
<text text-anchor="middle" x="303.5" y="-446.3" font-family="Times,serif" font-size="14.00">02:20:20:01:01:01</text>
</g>
<!-- vlan:2:22001&#45;&#45;02:20:20:01:01:01 -->
<g id="edge5" class="edge">
<title>vlan:2:22001&#45;&#45;02:20:20:01:01:01</title>
<path fill="none" stroke="#8b0a50" d="M143,-252.04C143,-303.96 143,-450 143,-450 143,-450 187.63,-450 229.83,-450"/>
</g>
<!-- 02:20:20:01:02:01 -->
<g id="node10" class="node">
<title>02:20:20:01:02:01</title>
<polygon fill="none" stroke="#8b0a50" points="377,-414 230,-414 230,-378 377,-378 377,-414"/>
<text text-anchor="middle" x="303.5" y="-392.3" font-family="Times,serif" font-size="14.00">02:20:20:01:02:01</text>
</g>
<!-- vlan:2:22001&#45;&#45;02:20:20:01:02:01 -->
<g id="edge6" class="edge">
<title>vlan:2:22001&#45;&#45;02:20:20:01:02:01</title>
<path fill="none" stroke="#8b0a50" d="M152,-252.27C152,-294.64 152,-396 152,-396 152,-396 191.37,-396 229.97,-396"/>
</g>
<!-- 02:20:20:01:03:01 -->
<g id="node11" class="node">
<title>02:20:20:01:03:01</title>
<polygon fill="none" stroke="#8b0a50" points="377,-360 230,-360 230,-324 377,-324 377,-360"/>
<text text-anchor="middle" x="303.5" y="-338.3" font-family="Times,serif" font-size="14.00">02:20:20:01:03:01</text>
</g>
<!-- vlan:2:22001&#45;&#45;02:20:20:01:03:01 -->
<g id="edge7" class="edge">
<title>vlan:2:22001&#45;&#45;02:20:20:01:03:01</title>
<path fill="none" stroke="#8b0a50" d="M169,-252.32C169,-283.13 169,-342 169,-342 169,-342 198.55,-342 229.95,-342"/>
</g>
<!-- 02:20:20:02:01:01 -->
<g id="node18" class="node">
<title>02:20:20:02:01:01</title>
<polygon fill="none" stroke="#8b0a50" points="377,-306 230,-306 230,-270 377,-270 377,-306"/>
<text text-anchor="middle" x="303.5" y="-284.3" font-family="Times,serif" font-size="14.00">02:20:20:02:01:01</text>
</g>
<!-- vlan:2:22001&#45;&#45;02:20:20:02:01:01 -->
<g id="edge15" class="edge">
<title>vlan:2:22001&#45;&#45;02:20:20:02:01:01</title>
<path fill="none" stroke="#8b0a50" d="M186,-252.28C186,-267.95 186,-288 186,-288 186,-288 206.15,-288 229.75,-288"/>
</g>
<!-- 02:20:20:02:02:01 -->
<g id="node19" class="node">
<title>02:20:20:02:02:01</title>
<polygon fill="none" stroke="#8b0a50" points="377,-252 230,-252 230,-216 377,-216 377,-252"/>
<text text-anchor="middle" x="303.5" y="-230.3" font-family="Times,serif" font-size="14.00">02:20:20:02:02:01</text>
</g>
<!-- vlan:2:22001&#45;&#45;02:20:20:02:02:01 -->
<g id="edge16" class="edge">
<title>vlan:2:22001&#45;&#45;02:20:20:02:02:01</title>
<path fill="none" stroke="#8b0a50" d="M194.27,-234C204.85,-234 217.23,-234 229.79,-234"/>
</g>
<!-- 02:20:20:02:03:01 -->
<g id="node20" class="node">
<title>02:20:20:02:03:01</title>
<polygon fill="none" stroke="#8b0a50" points="377,-198 230,-198 230,-162 377,-162 377,-198"/>
<text text-anchor="middle" x="303.5" y="-176.3" font-family="Times,serif" font-size="14.00">02:20:20:02:03:01</text>
</g>
<!-- vlan:2:22001&#45;&#45;02:20:20:02:03:01 -->
<g id="edge17" class="edge">
<title>vlan:2:22001&#45;&#45;02:20:20:02:03:01</title>
<path fill="none" stroke="#8b0a50" d="M182,-215.72C182,-200.05 182,-180 182,-180 182,-180 204.23,-180 229.67,-180"/>
</g>
<!-- 02:20:20:03:01:01 -->
<g id="node24" class="node">
<title>02:20:20:03:01:01</title>
<polygon fill="none" stroke="#8b0a50" points="377,-144 230,-144 230,-108 377,-108 377,-144"/>
<text text-anchor="middle" x="303.5" y="-122.3" font-family="Times,serif" font-size="14.00">02:20:20:03:01:01</text>
</g>
<!-- vlan:2:22001&#45;&#45;02:20:20:03:01:01 -->
<g id="edge24" class="edge">
<title>vlan:2:22001&#45;&#45;02:20:20:03:01:01</title>
<path fill="none" stroke="#8b0a50" d="M170,-215.68C170,-184.87 170,-126 170,-126 170,-126 198.85,-126 229.72,-126"/>
</g>
<!-- 02:20:20:03:02:01 -->
<g id="node25" class="node">
<title>02:20:20:03:02:01</title>
<polygon fill="none" stroke="#8b0a50" points="377,-90 230,-90 230,-54 377,-54 377,-90"/>
<text text-anchor="middle" x="303.5" y="-68.3" font-family="Times,serif" font-size="14.00">02:20:20:03:02:01</text>
</g>
<!-- vlan:2:22001&#45;&#45;02:20:20:03:02:01 -->
<g id="edge25" class="edge">
<title>vlan:2:22001&#45;&#45;02:20:20:03:02:01</title>
<path fill="none" stroke="#8b0a50" d="M158,-215.73C158,-173.36 158,-72 158,-72 158,-72 193.81,-72 229.9,-72"/>
</g>
<!-- 02:20:20:03:03:01 -->
<g id="node26" class="node">
<title>02:20:20:03:03:01</title>
<polygon fill="none" stroke="#8b0a50" points="377,-36 230,-36 230,0 377,0 377,-36"/>
<text text-anchor="middle" x="303.5" y="-14.3" font-family="Times,serif" font-size="14.00">02:20:20:03:03:01</text>
</g>
<!-- vlan:2:22001&#45;&#45;02:20:20:03:03:01 -->
<g id="edge26" class="edge">
<title>vlan:2:22001&#45;&#45;02:20:20:03:03:01</title>
<path fill="none" stroke="#8b0a50" d="M146,-215.96C146,-164.04 146,-18 146,-18 146,-18 188.83,-18 229.82,-18"/>
</g>
<!-- vtep:22002 -->
<g id="node3" class="node">
<title>vtep:22002</title>
<polygon fill="none" stroke="indigo" points="98,-684 0,-684 0,-648 98,-648 98,-684"/>
<text text-anchor="middle" x="49" y="-662.3" font-family="Times,serif" font-size="14.00">vtep 22002</text>
</g>
<!-- vlan:4:22002 -->
<g id="node4" class="node">
<title>vlan:4:22002</title>
<polygon fill="indigo" stroke="indigo" points="194,-738 134,-738 134,-702 194,-702 194,-738"/>
<text text-anchor="middle" x="164" y="-716.3" font-family="Times,serif" font-size="14.00" fill="white">vlan 4</text>
</g>
<!-- vtep:22002&#45;&#45;vlan:4:22002 -->
<g id="edge2" class="edge">
<title>vtep:22002&#45;&#45;vlan:4:22002</title>
<path fill="none" stroke="indigo" d="M98.1,-675C129.36,-675 164,-675 164,-675 164,-675 164,-689.44 164,-701.96"/>
</g>
<!-- vlan:3:22002 -->
<g id="node16" class="node">
<title>vlan:3:22002</title>
<polygon fill="indigo" stroke="indigo" points="194,-630 134,-630 134,-594 194,-594 194,-630"/>
<text text-anchor="middle" x="164" y="-608.3" font-family="Times,serif" font-size="14.00" fill="white">vlan 3</text>
</g>
<!-- vtep:22002&#45;&#45;vlan:3:22002 -->
<g id="edge13" class="edge">
<title>vtep:22002&#45;&#45;vlan:3:22002</title>
<path fill="none" stroke="indigo" d="M98.12,-666C123.41,-666 149,-666 149,-666 149,-666 149,-645.95 149,-630.28"/>
</g>
<!-- 02:20:20:01:04:01 -->
<g id="node12" class="node">
<title>02:20:20:01:04:01</title>
<polygon fill="none" stroke="indigo" points="377,-792 230,-792 230,-756 377,-756 377,-792"/>
<text text-anchor="middle" x="303.5" y="-770.3" font-family="Times,serif" font-size="14.00">02:20:20:01:04:01</text>
</g>
<!-- vlan:4:22002&#45;&#45;02:20:20:01:04:01 -->
<g id="edge8" class="edge">
<title>vlan:4:22002&#45;&#45;02:20:20:01:04:01</title>
<path fill="none" stroke="indigo" d="M174,-738.28C174,-753.95 174,-774 174,-774 174,-774 200.59,-774 229.67,-774"/>
</g>
<!-- 02:20:20:01:05:01 -->
<g id="node13" class="node">
<title>02:20:20:01:05:01</title>
<polygon fill="none" stroke="indigo" points="377,-738 230,-738 230,-702 377,-702 377,-738"/>
<text text-anchor="middle" x="303.5" y="-716.3" font-family="Times,serif" font-size="14.00">02:20:20:01:05:01</text>
</g>
<!-- vlan:4:22002&#45;&#45;02:20:20:01:05:01 -->
<g id="edge9" class="edge">
<title>vlan:4:22002&#45;&#45;02:20:20:01:05:01</title>
<path fill="none" stroke="indigo" d="M194.27,-720C204.85,-720 217.23,-720 229.79,-720"/>
</g>
<!-- vtep:22003 -->
<g id="node5" class="node">
<title>vtep:22003</title>
<polygon fill="none" stroke="darkgreen" points="98,-927 0,-927 0,-891 98,-891 98,-927"/>
<text text-anchor="middle" x="49" y="-905.3" font-family="Times,serif" font-size="14.00">vtep 22003</text>
</g>
<!-- vlan:5:22003 -->
<g id="node6" class="node">
<title>vlan:5:22003</title>
<polygon fill="darkgreen" stroke="darkgreen" points="194,-981 134,-981 134,-945 194,-945 194,-981"/>
<text text-anchor="middle" x="164" y="-959.3" font-family="Times,serif" font-size="14.00" fill="white">vlan 5</text>
</g>
<!-- vtep:22003&#45;&#45;vlan:5:22003 -->
<g id="edge3" class="edge">
<title>vtep:22003&#45;&#45;vlan:5:22003</title>
<path fill="none" stroke="darkgreen" d="M98.12,-924C125.45,-924 154,-924 154,-924 154,-924 154,-934.69 154,-944.87"/>
</g>
<!-- vlan:4:22003 -->
<g id="node17" class="node">
<title>vlan:4:22003</title>
<polygon fill="darkgreen" stroke="darkgreen" points="194,-913 134,-913 134,-877 194,-877 194,-913"/>
<text text-anchor="middle" x="164" y="-891.3" font-family="Times,serif" font-size="14.00" fill="white">vlan 4</text>
</g>
<!-- vtep:22003&#45;&#45;vlan:4:22003 -->
<g id="edge14" class="edge">
<title>vtep:22003&#45;&#45;vlan:4:22003</title>
<path fill="none" stroke="darkgreen" d="M98.1,-902C110.19,-902 122.78,-902 133.69,-902"/>
</g>
<!-- 02:20:20:01:06:01 -->
<g id="node14" class="node">
<title>02:20:20:01:06:01</title>
<polygon fill="none" stroke="darkgreen" points="377,-1008 230,-1008 230,-972 377,-972 377,-1008"/>
<text text-anchor="middle" x="303.5" y="-986.3" font-family="Times,serif" font-size="14.00">02:20:20:01:06:01</text>
</g>
<!-- vlan:5:22003&#45;&#45;02:20:20:01:06:01 -->
<g id="edge10" class="edge">
<title>vlan:5:22003&#45;&#45;02:20:20:01:06:01</title>
<path fill="none" stroke="darkgreen" d="M194.27,-976.5C204.85,-976.5 217.23,-976.5 229.79,-976.5"/>
</g>
<!-- vtep:22004 -->
<g id="node7" class="node">
<title>vtep:22004</title>
<polygon fill="none" stroke="crimson" points="98,-1062 0,-1062 0,-1026 98,-1026 98,-1062"/>
<text text-anchor="middle" x="49" y="-1040.3" font-family="Times,serif" font-size="14.00">vtep 22004</text>
</g>
<!-- vlan:3:22004 -->
<g id="node8" class="node">
<title>vlan:3:22004</title>
<polygon fill="crimson" stroke="crimson" points="194,-1062 134,-1062 134,-1026 194,-1026 194,-1062"/>
<text text-anchor="middle" x="164" y="-1040.3" font-family="Times,serif" font-size="14.00" fill="white">vlan 3</text>
</g>
<!-- vtep:22004&#45;&#45;vlan:3:22004 -->
<g id="edge4" class="edge">
<title>vtep:22004&#45;&#45;vlan:3:22004</title>
<path fill="none" stroke="crimson" d="M98.1,-1044C110.19,-1044 122.78,-1044 133.69,-1044"/>
</g>
<!-- 02:20:20:01:07:01 -->
<g id="node15" class="node">
<title>02:20:20:01:07:01</title>
<polygon fill="none" stroke="crimson" points="377,-1062 230,-1062 230,-1026 377,-1026 377,-1062"/>
<text text-anchor="middle" x="303.5" y="-1040.3" font-family="Times,serif" font-size="14.00">02:20:20:01:07:01</text>
</g>
<!-- vlan:3:22004&#45;&#45;02:20:20:01:07:01 -->
<g id="edge11" class="edge">
<title>vlan:3:22004&#45;&#45;02:20:20:01:07:01</title>
<path fill="none" stroke="crimson" d="M194.27,-1044C204.85,-1044 217.23,-1044 229.79,-1044"/>
</g>
<!-- 02:20:20:02:04:01 -->
<g id="node21" class="node">
<title>02:20:20:02:04:01</title>
<polygon fill="none" stroke="indigo" points="377,-684 230,-684 230,-648 377,-648 377,-684"/>
<text text-anchor="middle" x="303.5" y="-662.3" font-family="Times,serif" font-size="14.00">02:20:20:02:04:01</text>
</g>
<!-- vlan:3:22002&#45;&#45;02:20:20:02:04:01 -->
<g id="edge18" class="edge">
<title>vlan:3:22002&#45;&#45;02:20:20:02:04:01</title>
<path fill="none" stroke="indigo" d="M179,-630.04C179,-642.56 179,-657 179,-657 179,-657 203.04,-657 230,-657"/>
</g>
<!-- 02:20:20:03:04:01 -->
<g id="node27" class="node">
<title>02:20:20:03:04:01</title>
<polygon fill="none" stroke="indigo" points="377,-630 230,-630 230,-594 377,-594 377,-630"/>
<text text-anchor="middle" x="303.5" y="-608.3" font-family="Times,serif" font-size="14.00">02:20:20:03:04:01</text>
</g>
<!-- vlan:3:22002&#45;&#45;02:20:20:03:04:01 -->
<g id="edge27" class="edge">
<title>vlan:3:22002&#45;&#45;02:20:20:03:04:01</title>
<path fill="none" stroke="indigo" d="M194.27,-612C204.85,-612 217.23,-612 229.79,-612"/>
</g>
<!-- 02:20:20:03:06:01 -->
<g id="node28" class="node">
<title>02:20:20:03:06:01</title>
<polygon fill="none" stroke="indigo" points="377,-576 230,-576 230,-540 377,-540 377,-576"/>
<text text-anchor="middle" x="303.5" y="-554.3" font-family="Times,serif" font-size="14.00">02:20:20:03:06:01</text>
</g>
<!-- vlan:3:22002&#45;&#45;02:20:20:03:06:01 -->
<g id="edge28" class="edge">
<title>vlan:3:22002&#45;&#45;02:20:20:03:06:01</title>
<path fill="none" stroke="indigo" d="M177,-593.72C177,-578.05 177,-558 177,-558 177,-558 202.09,-558 229.91,-558"/>
</g>
<!-- 02:20:20:03:07:01 -->
<g id="node29" class="node">
<title>02:20:20:03:07:01</title>
<polygon fill="none" stroke="indigo" points="377,-522 230,-522 230,-486 377,-486 377,-522"/>
<text text-anchor="middle" x="303.5" y="-500.3" font-family="Times,serif" font-size="14.00">02:20:20:03:07:01</text>
</g>
<!-- vlan:3:22002&#45;&#45;02:20:20:03:07:01 -->
<g id="edge29" class="edge">
<title>vlan:3:22002&#45;&#45;02:20:20:03:07:01</title>
<path fill="none" stroke="indigo" d="M160,-593.68C160,-562.87 160,-504 160,-504 160,-504 194.49,-504 229.65,-504"/>
</g>
<!-- 02:20:20:02:05:01 -->
<g id="node22" class="node">
<title>02:20:20:02:05:01</title>
<polygon fill="none" stroke="darkgreen" points="377,-954 230,-954 230,-918 377,-918 377,-954"/>
<text text-anchor="middle" x="303.5" y="-932.3" font-family="Times,serif" font-size="14.00">02:20:20:02:05:01</text>
</g>
<!-- vlan:4:22003&#45;&#45;02:20:20:02:05:01 -->
<g id="edge19" class="edge">
<title>vlan:4:22003&#45;&#45;02:20:20:02:05:01</title>
<path fill="none" stroke="darkgreen" d="M174,-913.06C174,-917.49 174,-921 174,-921 174,-921 200.59,-921 229.67,-921"/>
</g>
<!-- 02:20:20:02:06:01 -->
<g id="node23" class="node">
<title>02:20:20:02:06:01</title>
<polygon fill="none" stroke="darkgreen" points="377,-900 230,-900 230,-864 377,-864 377,-900"/>
<text text-anchor="middle" x="303.5" y="-878.3" font-family="Times,serif" font-size="14.00">02:20:20:02:06:01</text>
</g>
<!-- vlan:4:22003&#45;&#45;02:20:20:02:06:01 -->
<g id="edge20" class="edge">
<title>vlan:4:22003&#45;&#45;02:20:20:02:06:01</title>
<path fill="none" stroke="darkgreen" d="M194.27,-888.5C204.85,-888.5 217.23,-888.5 229.79,-888.5"/>
</g>
<!-- 02:20:20:03:05:01 -->
<g id="node30" class="node">
<title>02:20:20:03:05:01</title>
<polygon fill="none" stroke="darkgreen" points="377,-846 230,-846 230,-810 377,-810 377,-846"/>
<text text-anchor="middle" x="303.5" y="-824.3" font-family="Times,serif" font-size="14.00">02:20:20:03:05:01</text>
</g>
<!-- vlan:4:22003&#45;&#45;02:20:20:03:05:01 -->
<g id="edge30" class="edge">
<title>vlan:4:22003&#45;&#45;02:20:20:03:05:01</title>
<path fill="none" stroke="darkgreen" d="M154,-876.69C154,-856.85 154,-828 154,-828 154,-828 191.96,-828 229.63,-828"/>
</g>
</g>
</svg>
