<?xml version="1.0" encoding="UTF-8" standalone="no"?>
<!DOCTYPE svg PUBLIC "-//W3C//DTD SVG 1.1//EN"
 "http://www.w3.org/Graphics/SVG/1.1/DTD/svg11.dtd">
<!-- Generated by graphviz version 2.43.0 (0)
 -->
<!-- Title: G Pages: 1 -->
<svg width="921pt" height="726pt"
 viewBox="0.00 0.00 920.73 725.64" xmlns="http://www.w3.org/2000/svg" xmlns:xlink="http://www.w3.org/1999/xlink">
<g id="graph0" class="graph" transform="scale(1 1) rotate(0) translate(4 721.64)">
<title>G</title>
<polygon fill="white" stroke="transparent" points="-4,4 -4,-721.64 916.73,-721.64 916.73,4 -4,4"/>
<!-- vtep:22001 -->
<g id="node1" class="node">
<title>vtep:22001</title>
<polygon fill="#8b0a50" stroke="#8b0a50" points="353.65,-308.09 260.65,-308.09 260.65,-272.09 353.65,-272.09 353.65,-308.09"/>
<text text-anchor="middle" x="307.15" y="-286.39" font-family="Times,serif" font-size="14.00" fill="white">VNI 22001</text>
</g>
<!-- 02:20:20:01:01:01 -->
<g id="node5" class="node">
<title>02:20:20:01:01:01</title>
<polygon fill="none" stroke="#8b0a50" points="591.44,-410.35 444.44,-410.35 444.44,-374.35 591.44,-374.35 591.44,-410.35"/>
<text text-anchor="middle" x="517.94" y="-388.65" font-family="Times,serif" font-size="14.00">02:20:20:01:01:01</text>
</g>
<!-- vtep:22001&#45;&#45;02:20:20:01:01:01 -->
<g id="edge1" class="edge">
<title>vtep:22001&#45;&#45;02:20:20:01:01:01</title>
<path fill="none" stroke="#8b0a50" d="M344.35,-308.13C382.76,-326.77 442.35,-355.68 480.75,-374.31"/>
</g>
<!-- 02:20:20:01:02:01 -->
<g id="node6" class="node">
<title>02:20:20:01:02:01</title>
<polygon fill="none" stroke="#8b0a50" points="362.32,-74 215.32,-74 215.32,-38 362.32,-38 362.32,-74"/>
<text text-anchor="middle" x="288.82" y="-52.3" font-family="Times,serif" font-size="14.00">02:20:20:01:02:01</text>
</g>
<!-- vtep:22001&#45;&#45;02:20:20:01:02:01 -->
<g id="edge2" class="edge">
<title>vtep:22001&#45;&#45;02:20:20:01:02:01</title>
<path fill="none" stroke="#8b0a50" d="M305.71,-271.72C302.28,-227.96 293.67,-117.96 290.25,-74.28"/>
</g>
<!-- 02:20:20:01:03:01 -->
<g id="node7" class="node">
<title>02:20:20:01:03:01</title>
<polygon fill="none" stroke="#8b0a50" points="186.65,-441.49 39.65,-441.49 39.65,-405.49 186.65,-405.49 186.65,-441.49"/>
<text text-anchor="middle" x="113.15" y="-419.79" font-family="Times,serif" font-size="14.00">02:20:20:01:03:01</text>
</g>
<!-- vtep:22001&#45;&#45;02:20:20:01:03:01 -->
<g id="edge3" class="edge">
<title>vtep:22001&#45;&#45;02:20:20:01:03:01</title>
<path fill="none" stroke="#8b0a50" d="M280.58,-308.36C243.43,-333.9 176.38,-380.01 139.4,-405.44"/>
</g>
<!-- 02:20:20:02:01:01 -->
<g id="node12" class="node">
<title>02:20:20:02:01:01</title>
<polygon fill="none" stroke="#8b0a50" points="476.5,-523.08 329.5,-523.08 329.5,-487.08 476.5,-487.08 476.5,-523.08"/>
<text text-anchor="middle" x="403" y="-501.38" font-family="Times,serif" font-size="14.00">02:20:20:02:01:01</text>
</g>
<!-- vtep:22001&#45;&#45;02:20:20:02:01:01 -->
<g id="edge8" class="edge">
<title>vtep:22001&#45;&#45;02:20:20:02:01:01</title>
<path fill="none" stroke="#8b0a50" d="M315.32,-308.42C333.43,-349.04 376.76,-446.22 394.84,-486.8"/>
</g>
<!-- 02:20:20:02:02:01 -->
<g id="node13" class="node">
<title>02:20:20:02:02:01</title>
<polygon fill="none" stroke="#8b0a50" points="317.23,-532.34 170.23,-532.34 170.23,-496.34 317.23,-496.34 317.23,-532.34"/>
<text text-anchor="middle" x="243.73" y="-510.64" font-family="Times,serif" font-size="14.00">02:20:20:02:02:01</text>
</g>
<!-- vtep:22001&#45;&#45;02:20:20:02:02:01 -->
<g id="edge9" class="edge">
<title>vtep:22001&#45;&#45;02:20:20:02:02:01</title>
<path fill="none" stroke="#8b0a50" d="M301.96,-308.44C290.04,-350.6 260.81,-453.95 248.9,-496.05"/>
</g>
<!-- 02:20:20:02:03:01 -->
<g id="node14" class="node">
<title>02:20:20:02:03:01</title>
<polygon fill="none" stroke="#8b0a50" points="147,-285.06 0,-285.06 0,-249.06 147,-249.06 147,-285.06"/>
<text text-anchor="middle" x="73.5" y="-263.36" font-family="Times,serif" font-size="14.00">02:20:20:02:03:01</text>
</g>
<!-- vtep:22001&#45;&#45;02:20:20:02:03:01 -->
<g id="edge10" class="edge">
<title>vtep:22001&#45;&#45;02:20:20:02:03:01</title>
<path fill="none" stroke="#8b0a50" d="M260.43,-285.48C228.07,-282.29 184.32,-277.98 147.28,-274.33"/>
</g>
<!-- 02:20:20:03:01:01 -->
<g id="node18" class="node">
<title>02:20:20:03:01:01</title>
<polygon fill="none" stroke="#8b0a50" points="607.95,-250.62 460.95,-250.62 460.95,-214.62 607.95,-214.62 607.95,-250.62"/>
<text text-anchor="middle" x="534.45" y="-228.92" font-family="Times,serif" font-size="14.00">02:20:20:03:01:01</text>
</g>
<!-- vtep:22001&#45;&#45;02:20:20:03:01:01 -->
<g id="edge14" class="edge">
<title>vtep:22001&#45;&#45;02:20:20:03:01:01</title>
<path fill="none" stroke="#8b0a50" d="M353.69,-278.32C385.13,-270.37 427.23,-259.73 462.89,-250.71"/>
</g>
<!-- 02:20:20:03:02:01 -->
<g id="node19" class="node">
<title>02:20:20:03:02:01</title>
<polygon fill="none" stroke="#8b0a50" points="216.9,-141.23 69.9,-141.23 69.9,-105.23 216.9,-105.23 216.9,-141.23"/>
<text text-anchor="middle" x="143.4" y="-119.53" font-family="Times,serif" font-size="14.00">02:20:20:03:02:01</text>
</g>
<!-- vtep:22001&#45;&#45;02:20:20:03:02:01 -->
<g id="edge15" class="edge">
<title>vtep:22001&#45;&#45;02:20:20:03:02:01</title>
<path fill="none" stroke="#8b0a50" d="M289.31,-271.91C257.81,-239.82 192.7,-173.46 161.21,-141.38"/>
</g>
<!-- 02:20:20:03:03:01 -->
<g id="node20" class="node">
<title>02:20:20:03:03:01</title>
<polygon fill="none" stroke="#8b0a50" points="517.33,-117.87 370.33,-117.87 370.33,-81.87 517.33,-81.87 517.33,-117.87"/>
<text text-anchor="middle" x="443.83" y="-96.17" font-family="Times,serif" font-size="14.00">02:20:20:03:03:01</text>
</g>
<!-- vtep:22001&#45;&#45;02:20:20:03:03:01 -->
<g id="edge16" class="edge">
<title>vtep:22001&#45;&#45;02:20:20:03:03:01</title>
<path fill="none" stroke="#8b0a50" d="M320.25,-271.85C346.38,-235.49 404.67,-154.37 430.77,-118.06"/>
</g>
<!-- vtep:22002 -->
<g id="node2" class="node">
<title>vtep:22002</title>
<polygon fill="indigo" stroke="indigo" points="806.76,-126.53 713.76,-126.53 713.76,-90.53 806.76,-90.53 806.76,-126.53"/>
<text text-anchor="middle" x="760.26" y="-104.83" font-family="Times,serif" font-size="14.00" fill="white">VNI 22002</text>
</g>
<!-- 02:20:20:01:04:01 -->
<g id="node8" class="node">
<title>02:20:20:01:04:01</title>
<polygon fill="none" stroke="indigo" points="912.09,-80.99 765.09,-80.99 765.09,-44.99 912.09,-44.99 912.09,-80.99"/>
<text text-anchor="middle" x="838.59" y="-59.29" font-family="Times,serif" font-size="14.00">02:20:20:01:04:01</text>
</g>
<!-- vtep:22002&#45;&#45;02:20:20:01:04:01 -->
<g id="edge4" class="edge">
<title>vtep:22002&#45;&#45;02:20:20:01:04:01</title>
<path fill="none" stroke="indigo" d="M791.67,-90.27C796.86,-87.25 802.25,-84.13 807.43,-81.11"/>
</g>
<!-- 02:20:20:01:05:01 -->
<g id="node9" class="node">
<title>02:20:20:01:05:01</title>
<polygon fill="none" stroke="indigo" points="833.58,-36 686.58,-36 686.58,0 833.58,0 833.58,-36"/>
<text text-anchor="middle" x="760.08" y="-14.3" font-family="Times,serif" font-size="14.00">02:20:20:01:05:01</text>
</g>
<!-- vtep:22002&#45;&#45;02:20:20:01:05:01 -->
<g id="edge5" class="edge">
<title>vtep:22002&#45;&#45;02:20:20:01:05:01</title>
<path fill="none" stroke="indigo" d="M760.22,-90.21C760.19,-74.51 760.15,-51.99 760.12,-36.29"/>
</g>
<!-- 02:20:20:02:04:01 -->
<g id="node15" class="node">
<title>02:20:20:02:04:01</title>
<polygon fill="none" stroke="indigo" points="756.14,-173.11 609.14,-173.11 609.14,-137.11 756.14,-137.11 756.14,-173.11"/>
<text text-anchor="middle" x="682.64" y="-151.41" font-family="Times,serif" font-size="14.00">02:20:20:02:04:01</text>
</g>
<!-- vtep:22002&#45;&#45;02:20:20:02:04:01 -->
<g id="edge11" class="edge">
<title>vtep:22002&#45;&#45;02:20:20:02:04:01</title>
<path fill="none" stroke="indigo" d="M730.03,-126.67C724.32,-130.1 718.36,-133.68 712.66,-137.09"/>
</g>
<!-- 02:20:20:03:04:01 -->
<g id="node21" class="node">
<title>02:20:20:03:04:01</title>
<polygon fill="none" stroke="indigo" points="912.73,-171.01 765.73,-171.01 765.73,-135.01 912.73,-135.01 912.73,-171.01"/>
<text text-anchor="middle" x="839.23" y="-149.31" font-family="Times,serif" font-size="14.00">02:20:20:03:04:01</text>
</g>
<!-- vtep:22002&#45;&#45;02:20:20:03:04:01 -->
<g id="edge17" class="edge">
<title>vtep:22002&#45;&#45;02:20:20:03:04:01</title>
<path fill="none" stroke="indigo" d="M792.38,-126.62C797.25,-129.37 802.27,-132.19 807.14,-134.94"/>
</g>
<!-- 02:20:20:03:06:01 -->
<g id="node22" class="node">
<title>02:20:20:03:06:01</title>
<polygon fill="none" stroke="indigo" points="835.34,-217.11 688.34,-217.11 688.34,-181.11 835.34,-181.11 835.34,-217.11"/>
<text text-anchor="middle" x="761.84" y="-195.41" font-family="Times,serif" font-size="14.00">02:20:20:03:06:01</text>
</g>
<!-- vtep:22002&#45;&#45;02:20:20:03:06:01 -->
<g id="edge18" class="edge">
<title>vtep:22002&#45;&#45;02:20:20:03:06:01</title>
<path fill="none" stroke="indigo" d="M760.58,-126.86C760.85,-142.58 761.24,-165.1 761.52,-180.81"/>
</g>
<!-- 02:20:20:03:07:01 -->
<g id="node23" class="node">
<title>02:20:20:03:07:01</title>
<polygon fill="none" stroke="indigo" points="755,-81.97 608,-81.97 608,-45.97 755,-45.97 755,-81.97"/>
<text text-anchor="middle" x="681.5" y="-60.27" font-family="Times,serif" font-size="14.00">02:20:20:03:07:01</text>
</g>
<!-- vtep:22002&#45;&#45;02:20:20:03:07:01 -->
<g id="edge19" class="edge">
<title>vtep:22002&#45;&#45;02:20:20:03:07:01</title>
<path fill="none" stroke="indigo" d="M728.23,-90.41C723.37,-87.66 718.36,-84.83 713.51,-82.08"/>
</g>
<!-- vtep:22003 -->
<g id="node3" class="node">
<title>vtep:22003</title>
<polygon fill="darkgreen" stroke="darkgreen" points="707.45,-624.06 614.45,-624.06 614.45,-588.06 707.45,-588.06 707.45,-624.06"/>
<text text-anchor="middle" x="660.95" y="-602.36" font-family="Times,serif" font-size="14.00" fill="white">VNI 22003</text>
</g>
<!-- 02:20:20:01:06:01 -->
<g id="node10" class="node">
<title>02:20:20:01:06:01</title>
<polygon fill="none" stroke="darkgreen" points="828.55,-563.05 681.55,-563.05 681.55,-527.05 828.55,-527.05 828.55,-563.05"/>
<text text-anchor="middle" x="755.05" y="-541.35" font-family="Times,serif" font-size="14.00">02:20:20:01:06:01</text>
</g>
<!-- vtep:22003&#45;&#45;02:20:20:01:06:01 -->
<g id="edge6" class="edge">
<title>vtep:22003&#45;&#45;02:20:20:01:06:01</title>
<path fill="none" stroke="darkgreen" d="M688.93,-587.92C700.96,-580.12 714.98,-571.03 727.02,-563.23"/>
</g>
<!-- 02:20:20:02:05:01 -->
<g id="node16" class="node">
<title>02:20:20:02:05:01</title>
<polygon fill="none" stroke="darkgreen" points="673.54,-530 526.54,-530 526.54,-494 673.54,-494 673.54,-530"/>
<text text-anchor="middle" x="600.04" y="-508.3" font-family="Times,serif" font-size="14.00">02:20:20:02:05:01</text>
</g>
<!-- vtep:22003&#45;&#45;02:20:20:02:05:01 -->
<g id="edge12" class="edge">
<title>vtep:22003&#45;&#45;02:20:20:02:05:01</title>
<path fill="none" stroke="darkgreen" d="M649.2,-587.93C638.42,-571.27 622.52,-546.72 611.75,-530.08"/>
</g>
<!-- 02:20:20:02:06:01 -->
<g id="node17" class="node">
<title>02:20:20:02:06:01</title>
<polygon fill="none" stroke="darkgreen" points="641,-685.95 494,-685.95 494,-649.95 641,-649.95 641,-685.95"/>
<text text-anchor="middle" x="567.5" y="-664.25" font-family="Times,serif" font-size="14.00">02:20:20:02:06:01</text>
</g>
<!-- vtep:22003&#45;&#45;02:20:20:02:06:01 -->
<g id="edge13" class="edge">
<title>vtep:22003&#45;&#45;02:20:20:02:06:01</title>
<path fill="none" stroke="darkgreen" d="M633.67,-624.13C621.49,-632.19 607.17,-641.68 594.98,-649.75"/>
</g>
<!-- 02:20:20:03:05:01 -->
<g id="node24" class="node">
<title>02:20:20:03:05:01</title>
<polygon fill="none" stroke="darkgreen" points="796.32,-717.64 649.32,-717.64 649.32,-681.64 796.32,-681.64 796.32,-717.64"/>
<text text-anchor="middle" x="722.82" y="-695.94" font-family="Times,serif" font-size="14.00">02:20:20:03:05:01</text>
</g>
<!-- vtep:22003&#45;&#45;02:20:20:03:05:01 -->
<g id="edge20" class="edge">
<title>vtep:22003&#45;&#45;02:20:20:03:05:01</title>
<path fill="none" stroke="darkgreen" d="M672.88,-624.11C683.76,-640.57 699.77,-664.79 710.71,-681.34"/>
</g>
<!-- vtep:22004 -->
<g id="node4" class="node">
<title>vtep:22004</title>
<polygon fill="crimson" stroke="crimson" points="663,-321.13 570,-321.13 570,-285.13 663,-285.13 663,-321.13"/>
<text text-anchor="middle" x="616.5" y="-299.43" font-family="Times,serif" font-size="14.00" fill="white">VNI 22004</text>
</g>
<!-- 02:20:20:01:07:01 -->
<g id="node11" class="node">
<title>02:20:20:01:07:01</title>
<polygon fill="none" stroke="crimson" points="818.01,-302 671.01,-302 671.01,-266 818.01,-266 818.01,-302"/>
<text text-anchor="middle" x="744.51" y="-280.3" font-family="Times,serif" font-size="14.00">02:20:20:01:07:01</text>
</g>
<!-- vtep:22004&#45;&#45;02:20:20:01:07:01 -->
<g id="edge7" class="edge">
<title>vtep:22004&#45;&#45;02:20:20:01:07:01</title>
<path fill="none" stroke="crimson" d="M663.08,-296.17C665.65,-295.78 668.27,-295.39 670.9,-295"/>
</g>
</g>
</svg>
